<svg width="22" height="22" viewBox="0 0 22 22" fill="none" xmlns="http://www.w3.org/2000/svg">
<path d="M16.5 17.875C16.5 18.6043 16.2103 19.3038 15.6945 19.8195C15.1788 20.3353 14.4793 20.625 13.75 20.625H4.125C3.39565 20.625 2.69618 20.3353 2.18046 19.8195C1.66473 19.3038 1.375 18.6043 1.375 17.875V8.25C1.375 7.52065 1.66473 6.82118 2.18046 6.30546C2.69618 5.78973 3.39565 5.5 4.125 5.5V6.875C3.76033 6.875 3.41059 7.01987 3.15273 7.27773C2.89487 7.53559 2.75 7.88533 2.75 8.25V17.875C2.75 18.2397 2.89487 18.5894 3.15273 18.8473C3.41059 19.1051 3.76033 19.25 4.125 19.25H13.75C14.1147 19.25 14.4644 19.1051 14.7223 18.8473C14.9801 18.5894 15.125 18.2397 15.125 17.875H16.5Z" fill="#EC268F"/>
<path d="M8.25 2.75C7.88533 2.75 7.53559 2.89487 7.27773 3.15273C7.01987 3.41059 6.875 3.76033 6.875 4.125V13.75C6.875 14.1147 7.01987 14.4644 7.27773 14.7223C7.53559 14.9801 7.88533 15.125 8.25 15.125H17.875C18.2397 15.125 18.5894 14.9801 18.8473 14.7223C19.1051 14.4644 19.25 14.1147 19.25 13.75V4.125C19.25 3.76033 19.1051 3.41059 18.8473 3.15273C18.5894 2.89487 18.2397 2.75 17.875 2.75H8.25ZM8.25 1.375H17.875C18.6043 1.375 19.3038 1.66473 19.8195 2.18046C20.3353 2.69618 20.625 3.39565 20.625 4.125V13.75C20.625 14.4793 20.3353 15.1788 19.8195 15.6945C19.3038 16.2103 18.6043 16.5 17.875 16.5H8.25C7.52065 16.5 6.82118 16.2103 6.30546 15.6945C5.78973 15.1788 5.5 14.4793 5.5 13.75V4.125C5.5 3.39565 5.78973 2.69618 6.30546 2.18046C6.82118 1.66473 7.52065 1.375 8.25 1.375V1.375Z" fill="#EC268F"/>
</svg>
