<svg xmlns="http://www.w3.org/2000/svg" xmlns:xlink="http://www.w3.org/1999/xlink" width="480" zoomAndPan="magnify" viewBox="0 0 360 149.999998" height="200" preserveAspectRatio="xMidYMid meet" version="1.0"><defs><g/><clipPath id="89b373e7ba"><path d="M 12.574219 5 L 104.660156 5 L 104.660156 144.757812 L 12.574219 144.757812 Z M 12.574219 5 " clip-rule="nonzero"/></clipPath><clipPath id="04d3f7bd9a"><path d="M 27.925781 73.402344 C 28.484375 74.183594 29.023438 75.007812 29.691406 76.03125 C 32.402344 80.167969 37.222656 87.527344 41.433594 91.394531 C 43.394531 93.199219 43.929688 94.214844 43.988281 94.070312 C 44.929688 91.566406 44.640625 86.300781 44.074219 81.148438 C 43.640625 77.226562 43.023438 73.324219 42.398438 69.390625 C 41.21875 61.945312 40.019531 54.394531 39.964844 47.148438 C 37.855469 47.808594 35.773438 48.566406 33.847656 49.46875 C 31.269531 50.675781 28.941406 52.152344 27.195312 54.019531 C 24.75 56.636719 23.761719 59.546875 23.808594 62.464844 C 23.867188 66.132812 25.488281 69.964844 27.925781 73.40625 Z M 22.640625 80.652344 C 21.894531 79.515625 21.296875 78.601562 21.074219 78.289062 C 17.726562 73.558594 15.496094 68.089844 15.410156 62.558594 C 15.332031 57.558594 16.972656 52.625 21.035156 48.273438 C 23.585938 45.539062 26.800781 43.472656 30.289062 41.839844 C 33.59375 40.296875 37.101562 39.15625 40.492188 38.210938 L 40.585938 38.183594 C 41.925781 29.816406 45.640625 22.140625 53.78125 15.867188 C 55.582031 14.476562 57.496094 13.175781 59.476562 12 C 65.789062 8.257812 73.0625 5.570312 79.851562 5.121094 C 87.273438 4.636719 94.121094 6.746094 98.792969 12.832031 C 99.324219 13.523438 99.808594 14.234375 100.242188 14.972656 L 100.421875 15.273438 C 102.21875 18.3125 103.664062 20.75 104.269531 23.203125 C 105.761719 29.246094 103.253906 32.863281 92.542969 35.519531 C 89.789062 36.207031 85.082031 37.128906 79.316406 38.257812 C 70.199219 40.046875 58.429688 42.355469 48.507812 44.816406 C 48.1875 52.199219 49.457031 60.203125 50.703125 68.070312 C 51.359375 72.226562 52.015625 76.351562 52.441406 80.222656 C 53.125 86.429688 53.378906 93.011719 51.859375 97.046875 C 49.34375 103.726562 44.519531 105.679688 35.734375 97.601562 C 30.742188 93.011719 25.554688 85.101562 22.644531 80.65625 Z M 58.914062 22.535156 C 54.152344 26.207031 51.375 30.738281 49.894531 35.8125 C 59.265625 33.589844 69.539062 31.578125 77.695312 29.976562 C 83.46875 28.84375 88.183594 27.921875 90.527344 27.339844 C 94.945312 26.242188 96.210938 25.691406 96.09375 25.214844 C 95.792969 24 94.625 22.027344 93.171875 19.566406 L 92.992188 19.265625 C 92.707031 18.78125 92.417969 18.355469 92.136719 17.984375 C 89.414062 14.441406 85.136719 13.230469 80.375 13.542969 C 74.984375 13.894531 69.03125 16.132812 63.757812 19.261719 C 62.027344 20.289062 60.398438 21.390625 58.914062 22.535156 Z M 89.308594 76.316406 C 88.976562 75.847656 88.34375 74.886719 87.5625 73.691406 L 87.546875 73.691406 C 84.835938 69.554688 80.015625 62.191406 75.804688 58.324219 C 73.84375 56.519531 73.308594 55.503906 73.253906 55.648438 C 72.308594 58.152344 72.597656 63.417969 73.164062 68.570312 C 73.597656 72.492188 74.214844 76.394531 74.839844 80.328125 C 76.019531 87.773438 77.214844 95.324219 77.273438 102.570312 C 79.378906 101.910156 81.460938 101.152344 83.386719 100.25 C 85.964844 99.042969 88.292969 97.566406 90.039062 95.699219 C 92.484375 93.082031 93.472656 90.175781 93.425781 87.269531 L 93.425781 87.253906 C 93.367188 83.585938 91.746094 79.753906 89.308594 76.3125 Z M 94.585938 69.078125 C 95.214844 70.03125 95.71875 70.800781 96.160156 71.429688 C 99.507812 76.15625 101.734375 81.621094 101.824219 87.140625 C 101.902344 92.152344 100.261719 97.089844 96.199219 101.445312 C 93.648438 104.175781 90.433594 106.242188 86.945312 107.875 C 83.644531 109.417969 80.128906 110.558594 76.746094 111.507812 L 76.652344 111.53125 C 75.3125 119.898438 71.59375 127.578125 63.460938 133.847656 C 61.660156 135.238281 59.742188 136.539062 57.761719 137.714844 C 51.449219 141.457031 44.175781 144.144531 37.386719 144.59375 C 29.964844 145.082031 23.117188 142.96875 18.449219 136.882812 C 17.917969 136.191406 17.429688 135.480469 17 134.742188 L 16.820312 134.441406 C 15.023438 131.402344 13.578125 128.964844 12.972656 126.515625 C 11.480469 120.46875 13.988281 116.851562 24.699219 114.195312 C 27.453125 113.511719 32.160156 112.585938 37.925781 111.457031 C 47.042969 109.667969 58.816406 107.355469 68.734375 104.898438 C 69.054688 97.515625 67.785156 89.511719 66.539062 81.644531 C 65.882812 77.484375 65.226562 73.363281 64.800781 69.492188 C 64.113281 63.285156 63.863281 56.703125 65.382812 52.671875 C 67.898438 45.992188 72.722656 44.039062 81.507812 52.117188 C 86.5 56.707031 91.6875 64.617188 94.597656 69.0625 L 94.585938 69.070312 Z M 58.320312 127.183594 C 63.082031 123.511719 65.859375 118.980469 67.339844 113.910156 C 57.96875 116.128906 47.695312 118.144531 39.535156 119.746094 C 33.761719 120.878906 29.050781 121.800781 26.707031 122.382812 C 22.292969 123.476562 21.023438 124.03125 21.140625 124.503906 C 21.441406 125.722656 22.609375 127.695312 24.066406 130.15625 L 24.242188 130.460938 C 24.527344 130.941406 24.816406 131.371094 25.101562 131.742188 C 27.820312 135.285156 32.101562 136.496094 36.859375 136.183594 C 42.25 135.828125 48.203125 133.589844 53.476562 130.460938 C 55.210938 129.429688 56.839844 128.332031 58.320312 127.1875 Z M 58.320312 127.183594 " clip-rule="nonzero"/></clipPath><linearGradient x1="262.43561" gradientTransform="matrix(0.313777, 0, 0, 0.314363, 12.574117, 5.053392)" y1="-6.285547" x2="169.302874" gradientUnits="userSpaceOnUse" y2="477.029278" id="fd245d153b"><stop stop-opacity="1" stop-color="rgb(100%, 94.898987%, 7.099915%)" offset="0"/><stop stop-opacity="1" stop-color="rgb(100%, 94.898987%, 7.099915%)" offset="0.03125"/><stop stop-opacity="1" stop-color="rgb(99.281311%, 94.689941%, 7.298279%)" offset="0.0351562"/><stop stop-opacity="1" stop-color="rgb(98.564148%, 94.482422%, 7.498169%)" offset="0.0390625"/><stop stop-opacity="1" stop-color="rgb(97.355652%, 94.13147%, 7.833862%)" offset="0.0429687"/><stop stop-opacity="1" stop-color="rgb(96.148682%, 93.782043%, 8.169556%)" offset="0.046875"/><stop stop-opacity="1" stop-color="rgb(94.940186%, 93.431091%, 8.505249%)" offset="0.0507812"/><stop stop-opacity="1" stop-color="rgb(93.733215%, 93.081665%, 8.840942%)" offset="0.0546875"/><stop stop-opacity="1" stop-color="rgb(92.524719%, 92.730713%, 9.176636%)" offset="0.0585937"/><stop stop-opacity="1" stop-color="rgb(91.317749%, 92.381287%, 9.512329%)" offset="0.0625"/><stop stop-opacity="1" stop-color="rgb(90.110779%, 92.030334%, 9.848022%)" offset="0.0664062"/><stop stop-opacity="1" stop-color="rgb(88.903809%, 91.680908%, 10.183716%)" offset="0.0703125"/><stop stop-opacity="1" stop-color="rgb(87.695312%, 91.329956%, 10.519409%)" offset="0.0742187"/><stop stop-opacity="1" stop-color="rgb(86.488342%, 90.98053%, 10.855103%)" offset="0.078125"/><stop stop-opacity="1" stop-color="rgb(85.279846%, 90.629578%, 11.190796%)" offset="0.0820312"/><stop stop-opacity="1" stop-color="rgb(84.072876%, 90.280151%, 11.526489%)" offset="0.0859375"/><stop stop-opacity="1" stop-color="rgb(82.86438%, 89.929199%, 11.862183%)" offset="0.0898437"/><stop stop-opacity="1" stop-color="rgb(81.65741%, 89.579773%, 12.197876%)" offset="0.09375"/><stop stop-opacity="1" stop-color="rgb(80.448914%, 89.228821%, 12.533569%)" offset="0.0976562"/><stop stop-opacity="1" stop-color="rgb(79.241943%, 88.879395%, 12.869263%)" offset="0.101562"/><stop stop-opacity="1" stop-color="rgb(78.033447%, 88.528442%, 13.204956%)" offset="0.105469"/><stop stop-opacity="1" stop-color="rgb(76.826477%, 88.179016%, 13.540649%)" offset="0.109375"/><stop stop-opacity="1" stop-color="rgb(75.619507%, 87.828064%, 13.876343%)" offset="0.113281"/><stop stop-opacity="1" stop-color="rgb(74.412537%, 87.478638%, 14.212036%)" offset="0.117187"/><stop stop-opacity="1" stop-color="rgb(73.204041%, 87.127686%, 14.547729%)" offset="0.121094"/><stop stop-opacity="1" stop-color="rgb(71.99707%, 86.778259%, 14.883423%)" offset="0.125"/><stop stop-opacity="1" stop-color="rgb(70.788574%, 86.427307%, 15.219116%)" offset="0.128906"/><stop stop-opacity="1" stop-color="rgb(69.581604%, 86.077881%, 15.55481%)" offset="0.132812"/><stop stop-opacity="1" stop-color="rgb(68.373108%, 85.726929%, 15.890503%)" offset="0.136719"/><stop stop-opacity="1" stop-color="rgb(67.166138%, 85.377502%, 16.226196%)" offset="0.140625"/><stop stop-opacity="1" stop-color="rgb(65.957642%, 85.02655%, 16.56189%)" offset="0.144531"/><stop stop-opacity="1" stop-color="rgb(64.750671%, 84.677124%, 16.897583%)" offset="0.148437"/><stop stop-opacity="1" stop-color="rgb(63.542175%, 84.326172%, 17.233276%)" offset="0.152344"/><stop stop-opacity="1" stop-color="rgb(62.335205%, 83.976746%, 17.56897%)" offset="0.15625"/><stop stop-opacity="1" stop-color="rgb(61.128235%, 83.625793%, 17.904663%)" offset="0.160156"/><stop stop-opacity="1" stop-color="rgb(59.921265%, 83.276367%, 18.241882%)" offset="0.164062"/><stop stop-opacity="1" stop-color="rgb(58.712769%, 82.925415%, 18.577576%)" offset="0.167969"/><stop stop-opacity="1" stop-color="rgb(57.505798%, 82.575989%, 18.913269%)" offset="0.171875"/><stop stop-opacity="1" stop-color="rgb(56.297302%, 82.225037%, 19.248962%)" offset="0.175781"/><stop stop-opacity="1" stop-color="rgb(55.090332%, 81.87561%, 19.584656%)" offset="0.179687"/><stop stop-opacity="1" stop-color="rgb(53.881836%, 81.524658%, 19.920349%)" offset="0.183594"/><stop stop-opacity="1" stop-color="rgb(52.674866%, 81.175232%, 20.256042%)" offset="0.1875"/><stop stop-opacity="1" stop-color="rgb(51.46637%, 80.82428%, 20.591736%)" offset="0.191406"/><stop stop-opacity="1" stop-color="rgb(50.259399%, 80.474854%, 20.927429%)" offset="0.195312"/><stop stop-opacity="1" stop-color="rgb(49.050903%, 80.123901%, 21.263123%)" offset="0.199219"/><stop stop-opacity="1" stop-color="rgb(47.843933%, 79.774475%, 21.598816%)" offset="0.203125"/><stop stop-opacity="1" stop-color="rgb(46.636963%, 79.423523%, 21.934509%)" offset="0.207031"/><stop stop-opacity="1" stop-color="rgb(45.429993%, 79.074097%, 22.270203%)" offset="0.210937"/><stop stop-opacity="1" stop-color="rgb(44.221497%, 78.723145%, 22.605896%)" offset="0.214844"/><stop stop-opacity="1" stop-color="rgb(43.014526%, 78.373718%, 22.941589%)" offset="0.21875"/><stop stop-opacity="1" stop-color="rgb(41.80603%, 78.022766%, 23.277283%)" offset="0.222656"/><stop stop-opacity="1" stop-color="rgb(40.59906%, 77.67334%, 23.612976%)" offset="0.226562"/><stop stop-opacity="1" stop-color="rgb(39.390564%, 77.322388%, 23.948669%)" offset="0.230469"/><stop stop-opacity="1" stop-color="rgb(38.183594%, 76.972961%, 24.284363%)" offset="0.234375"/><stop stop-opacity="1" stop-color="rgb(36.975098%, 76.622009%, 24.620056%)" offset="0.238281"/><stop stop-opacity="1" stop-color="rgb(35.768127%, 76.272583%, 24.95575%)" offset="0.242188"/><stop stop-opacity="1" stop-color="rgb(34.559631%, 75.921631%, 25.291443%)" offset="0.246094"/><stop stop-opacity="1" stop-color="rgb(33.352661%, 75.572205%, 25.627136%)" offset="0.25"/><stop stop-opacity="1" stop-color="rgb(32.144165%, 75.221252%, 25.96283%)" offset="0.253906"/><stop stop-opacity="1" stop-color="rgb(30.937195%, 74.871826%, 26.298523%)" offset="0.257812"/><stop stop-opacity="1" stop-color="rgb(29.730225%, 74.520874%, 26.634216%)" offset="0.261719"/><stop stop-opacity="1" stop-color="rgb(28.523254%, 74.171448%, 26.96991%)" offset="0.265625"/><stop stop-opacity="1" stop-color="rgb(27.314758%, 73.820496%, 27.305603%)" offset="0.269531"/><stop stop-opacity="1" stop-color="rgb(26.107788%, 73.471069%, 27.641296%)" offset="0.273438"/><stop stop-opacity="1" stop-color="rgb(24.899292%, 73.120117%, 27.97699%)" offset="0.277344"/><stop stop-opacity="1" stop-color="rgb(23.692322%, 72.770691%, 28.312683%)" offset="0.28125"/><stop stop-opacity="1" stop-color="rgb(22.483826%, 72.419739%, 28.648376%)" offset="0.285156"/><stop stop-opacity="1" stop-color="rgb(21.276855%, 72.070312%, 28.98407%)" offset="0.289062"/><stop stop-opacity="1" stop-color="rgb(20.068359%, 71.71936%, 29.319763%)" offset="0.292969"/><stop stop-opacity="1" stop-color="rgb(18.861389%, 71.369934%, 29.655457%)" offset="0.296875"/><stop stop-opacity="1" stop-color="rgb(17.652893%, 71.018982%, 29.99115%)" offset="0.300781"/><stop stop-opacity="1" stop-color="rgb(16.445923%, 70.669556%, 30.326843%)" offset="0.304687"/><stop stop-opacity="1" stop-color="rgb(15.238953%, 70.318604%, 30.662537%)" offset="0.308594"/><stop stop-opacity="1" stop-color="rgb(14.031982%, 69.969177%, 30.99823%)" offset="0.3125"/><stop stop-opacity="1" stop-color="rgb(12.823486%, 69.618225%, 31.333923%)" offset="0.316406"/><stop stop-opacity="1" stop-color="rgb(11.616516%, 69.268799%, 31.669617%)" offset="0.320312"/><stop stop-opacity="1" stop-color="rgb(10.40802%, 68.917847%, 32.00531%)" offset="0.324219"/><stop stop-opacity="1" stop-color="rgb(9.20105%, 68.56842%, 32.341003%)" offset="0.328125"/><stop stop-opacity="1" stop-color="rgb(7.992554%, 68.217468%, 32.676697%)" offset="0.332031"/><stop stop-opacity="1" stop-color="rgb(6.785583%, 67.868042%, 33.01239%)" offset="0.335937"/><stop stop-opacity="1" stop-color="rgb(5.577087%, 67.51709%, 33.348083%)" offset="0.339844"/><stop stop-opacity="1" stop-color="rgb(4.370117%, 67.167664%, 33.683777%)" offset="0.34375"/><stop stop-opacity="1" stop-color="rgb(3.161621%, 66.816711%, 34.01947%)" offset="0.347656"/><stop stop-opacity="1" stop-color="rgb(1.954651%, 66.467285%, 34.355164%)" offset="0.351562"/><stop stop-opacity="1" stop-color="rgb(0.976562%, 66.189575%, 34.773254%)" offset="0.355469"/><stop stop-opacity="1" stop-color="rgb(0%, 65.913391%, 35.191345%)" offset="0.359375"/><stop stop-opacity="1" stop-color="rgb(0%, 65.948486%, 35.960388%)" offset="0.363281"/><stop stop-opacity="1" stop-color="rgb(0%, 65.983582%, 36.730957%)" offset="0.367187"/><stop stop-opacity="1" stop-color="rgb(0%, 66.018677%, 37.5%)" offset="0.371094"/><stop stop-opacity="1" stop-color="rgb(0%, 66.053772%, 38.270569%)" offset="0.375"/><stop stop-opacity="1" stop-color="rgb(0%, 66.088867%, 39.039612%)" offset="0.378906"/><stop stop-opacity="1" stop-color="rgb(0%, 66.123962%, 39.810181%)" offset="0.382812"/><stop stop-opacity="1" stop-color="rgb(0%, 66.159058%, 40.579224%)" offset="0.386719"/><stop stop-opacity="1" stop-color="rgb(0%, 66.195679%, 41.348267%)" offset="0.390625"/><stop stop-opacity="1" stop-color="rgb(0%, 66.230774%, 42.11731%)" offset="0.394531"/><stop stop-opacity="1" stop-color="rgb(0%, 66.265869%, 42.887878%)" offset="0.398437"/><stop stop-opacity="1" stop-color="rgb(0%, 66.300964%, 43.656921%)" offset="0.402344"/><stop stop-opacity="1" stop-color="rgb(0%, 66.33606%, 44.42749%)" offset="0.40625"/><stop stop-opacity="1" stop-color="rgb(0%, 66.371155%, 45.196533%)" offset="0.410156"/><stop stop-opacity="1" stop-color="rgb(0%, 66.407776%, 45.967102%)" offset="0.414062"/><stop stop-opacity="1" stop-color="rgb(0%, 66.442871%, 46.736145%)" offset="0.417969"/><stop stop-opacity="1" stop-color="rgb(0%, 66.477966%, 47.505188%)" offset="0.421875"/><stop stop-opacity="1" stop-color="rgb(0%, 66.513062%, 48.274231%)" offset="0.425781"/><stop stop-opacity="1" stop-color="rgb(0%, 66.548157%, 49.0448%)" offset="0.429687"/><stop stop-opacity="1" stop-color="rgb(0%, 66.583252%, 49.813843%)" offset="0.433594"/><stop stop-opacity="1" stop-color="rgb(0%, 66.619873%, 50.584412%)" offset="0.4375"/><stop stop-opacity="1" stop-color="rgb(0%, 66.654968%, 51.353455%)" offset="0.441406"/><stop stop-opacity="1" stop-color="rgb(0%, 66.690063%, 52.124023%)" offset="0.445312"/><stop stop-opacity="1" stop-color="rgb(0%, 66.725159%, 52.893066%)" offset="0.449219"/><stop stop-opacity="1" stop-color="rgb(0%, 66.760254%, 53.662109%)" offset="0.453125"/><stop stop-opacity="1" stop-color="rgb(0%, 66.795349%, 54.431152%)" offset="0.457031"/><stop stop-opacity="1" stop-color="rgb(0%, 66.83197%, 55.201721%)" offset="0.460937"/><stop stop-opacity="1" stop-color="rgb(0%, 66.867065%, 55.970764%)" offset="0.464844"/><stop stop-opacity="1" stop-color="rgb(0%, 66.902161%, 56.741333%)" offset="0.46875"/><stop stop-opacity="1" stop-color="rgb(0%, 66.937256%, 57.510376%)" offset="0.472656"/><stop stop-opacity="1" stop-color="rgb(0%, 66.972351%, 58.280945%)" offset="0.476562"/><stop stop-opacity="1" stop-color="rgb(0%, 67.007446%, 59.049988%)" offset="0.480469"/><stop stop-opacity="1" stop-color="rgb(0%, 67.044067%, 59.819031%)" offset="0.484375"/><stop stop-opacity="1" stop-color="rgb(0%, 67.079163%, 60.588074%)" offset="0.488281"/><stop stop-opacity="1" stop-color="rgb(0%, 67.114258%, 61.358643%)" offset="0.492187"/><stop stop-opacity="1" stop-color="rgb(0%, 67.149353%, 62.127686%)" offset="0.496094"/><stop stop-opacity="1" stop-color="rgb(0%, 67.184448%, 62.898254%)" offset="0.5"/><stop stop-opacity="1" stop-color="rgb(0%, 67.219543%, 63.667297%)" offset="0.503906"/><stop stop-opacity="1" stop-color="rgb(0%, 67.256165%, 64.43634%)" offset="0.507813"/><stop stop-opacity="1" stop-color="rgb(0%, 67.29126%, 65.205383%)" offset="0.511719"/><stop stop-opacity="1" stop-color="rgb(0%, 67.326355%, 65.975952%)" offset="0.515625"/><stop stop-opacity="1" stop-color="rgb(0%, 67.36145%, 66.744995%)" offset="0.519531"/><stop stop-opacity="1" stop-color="rgb(0%, 67.396545%, 67.515564%)" offset="0.523438"/><stop stop-opacity="1" stop-color="rgb(0%, 67.431641%, 68.284607%)" offset="0.527344"/><stop stop-opacity="1" stop-color="rgb(0%, 67.468262%, 69.055176%)" offset="0.53125"/><stop stop-opacity="1" stop-color="rgb(0%, 67.503357%, 69.824219%)" offset="0.535156"/><stop stop-opacity="1" stop-color="rgb(0%, 67.538452%, 70.593262%)" offset="0.539062"/><stop stop-opacity="1" stop-color="rgb(0%, 67.573547%, 71.362305%)" offset="0.542969"/><stop stop-opacity="1" stop-color="rgb(0%, 67.608643%, 72.132874%)" offset="0.546875"/><stop stop-opacity="1" stop-color="rgb(0%, 67.643738%, 72.901917%)" offset="0.550781"/><stop stop-opacity="1" stop-color="rgb(0%, 67.680359%, 73.672485%)" offset="0.554688"/><stop stop-opacity="1" stop-color="rgb(0%, 67.715454%, 74.441528%)" offset="0.558594"/><stop stop-opacity="1" stop-color="rgb(0%, 67.750549%, 75.212097%)" offset="0.5625"/><stop stop-opacity="1" stop-color="rgb(0%, 67.785645%, 75.98114%)" offset="0.566406"/><stop stop-opacity="1" stop-color="rgb(0%, 67.82074%, 76.750183%)" offset="0.570312"/><stop stop-opacity="1" stop-color="rgb(0%, 67.855835%, 77.519226%)" offset="0.574219"/><stop stop-opacity="1" stop-color="rgb(0%, 67.89093%, 78.289795%)" offset="0.578125"/><stop stop-opacity="1" stop-color="rgb(0%, 67.926025%, 79.058838%)" offset="0.582031"/><stop stop-opacity="1" stop-color="rgb(0%, 67.962646%, 79.829407%)" offset="0.585937"/><stop stop-opacity="1" stop-color="rgb(0%, 67.997742%, 80.59845%)" offset="0.589844"/><stop stop-opacity="1" stop-color="rgb(0%, 68.032837%, 81.369019%)" offset="0.59375"/><stop stop-opacity="1" stop-color="rgb(0%, 68.067932%, 82.138062%)" offset="0.597656"/><stop stop-opacity="1" stop-color="rgb(0%, 68.103027%, 82.907104%)" offset="0.601562"/><stop stop-opacity="1" stop-color="rgb(0%, 68.138123%, 83.676147%)" offset="0.605469"/><stop stop-opacity="1" stop-color="rgb(0%, 68.174744%, 84.446716%)" offset="0.609375"/><stop stop-opacity="1" stop-color="rgb(0%, 68.209839%, 85.215759%)" offset="0.613281"/><stop stop-opacity="1" stop-color="rgb(0%, 68.244934%, 85.986328%)" offset="0.617187"/><stop stop-opacity="1" stop-color="rgb(0%, 68.280029%, 86.755371%)" offset="0.621094"/><stop stop-opacity="1" stop-color="rgb(0%, 68.315125%, 87.52594%)" offset="0.625"/><stop stop-opacity="1" stop-color="rgb(0%, 68.35022%, 88.294983%)" offset="0.628906"/><stop stop-opacity="1" stop-color="rgb(0%, 68.386841%, 89.064026%)" offset="0.632812"/><stop stop-opacity="1" stop-color="rgb(0%, 68.421936%, 89.833069%)" offset="0.636719"/><stop stop-opacity="1" stop-color="rgb(0%, 68.457031%, 90.603638%)" offset="0.640625"/><stop stop-opacity="1" stop-color="rgb(0%, 68.492126%, 91.372681%)" offset="0.644531"/><stop stop-opacity="1" stop-color="rgb(0%, 68.527222%, 92.14325%)" offset="0.648437"/><stop stop-opacity="1" stop-color="rgb(0%, 68.562317%, 92.912292%)" offset="0.652344"/><stop stop-opacity="1" stop-color="rgb(0%, 68.598938%, 93.682861%)" offset="0.65625"/><stop stop-opacity="1" stop-color="rgb(1.171875%, 67.918396%, 93.214417%)" offset="0.660156"/><stop stop-opacity="1" stop-color="rgb(2.34375%, 67.237854%, 92.745972%)" offset="0.664062"/><stop stop-opacity="1" stop-color="rgb(3.527832%, 66.549683%, 92.263794%)" offset="0.667969"/><stop stop-opacity="1" stop-color="rgb(4.71344%, 65.863037%, 91.783142%)" offset="0.671875"/><stop stop-opacity="1" stop-color="rgb(5.897522%, 65.174866%, 91.300964%)" offset="0.675781"/><stop stop-opacity="1" stop-color="rgb(7.08313%, 64.486694%, 90.820312%)" offset="0.679688"/><stop stop-opacity="1" stop-color="rgb(8.267212%, 63.798523%, 90.338135%)" offset="0.683594"/><stop stop-opacity="1" stop-color="rgb(9.45282%, 63.110352%, 89.855957%)" offset="0.6875"/><stop stop-opacity="1" stop-color="rgb(10.636902%, 62.42218%, 89.373779%)" offset="0.691406"/><stop stop-opacity="1" stop-color="rgb(11.82251%, 61.735535%, 88.893127%)" offset="0.695313"/><stop stop-opacity="1" stop-color="rgb(13.006592%, 61.047363%, 88.41095%)" offset="0.699219"/><stop stop-opacity="1" stop-color="rgb(14.1922%, 60.359192%, 87.930298%)" offset="0.703125"/><stop stop-opacity="1" stop-color="rgb(15.376282%, 59.671021%, 87.44812%)" offset="0.707031"/><stop stop-opacity="1" stop-color="rgb(16.56189%, 58.984375%, 86.965942%)" offset="0.710938"/><stop stop-opacity="1" stop-color="rgb(17.745972%, 58.296204%, 86.483765%)" offset="0.714844"/><stop stop-opacity="1" stop-color="rgb(18.93158%, 57.608032%, 86.003113%)" offset="0.71875"/><stop stop-opacity="1" stop-color="rgb(20.117188%, 56.919861%, 85.520935%)" offset="0.722656"/><stop stop-opacity="1" stop-color="rgb(21.302795%, 56.231689%, 85.040283%)" offset="0.726562"/><stop stop-opacity="1" stop-color="rgb(22.486877%, 55.543518%, 84.558105%)" offset="0.730469"/><stop stop-opacity="1" stop-color="rgb(23.672485%, 54.856873%, 84.075928%)" offset="0.734375"/><stop stop-opacity="1" stop-color="rgb(24.856567%, 54.168701%, 83.59375%)" offset="0.738281"/><stop stop-opacity="1" stop-color="rgb(26.042175%, 53.48053%, 83.113098%)" offset="0.742188"/><stop stop-opacity="1" stop-color="rgb(27.226257%, 52.792358%, 82.63092%)" offset="0.746094"/><stop stop-opacity="1" stop-color="rgb(28.411865%, 52.104187%, 82.150269%)" offset="0.75"/><stop stop-opacity="1" stop-color="rgb(29.595947%, 51.416016%, 81.668091%)" offset="0.753906"/><stop stop-opacity="1" stop-color="rgb(30.781555%, 50.72937%, 81.185913%)" offset="0.757812"/><stop stop-opacity="1" stop-color="rgb(31.965637%, 50.041199%, 80.703735%)" offset="0.761719"/><stop stop-opacity="1" stop-color="rgb(33.151245%, 49.353027%, 80.223083%)" offset="0.765625"/><stop stop-opacity="1" stop-color="rgb(34.335327%, 48.664856%, 79.740906%)" offset="0.769531"/><stop stop-opacity="1" stop-color="rgb(35.520935%, 47.976685%, 79.260254%)" offset="0.773437"/><stop stop-opacity="1" stop-color="rgb(36.706543%, 47.288513%, 78.778076%)" offset="0.777344"/><stop stop-opacity="1" stop-color="rgb(37.892151%, 46.601868%, 78.295898%)" offset="0.78125"/><stop stop-opacity="1" stop-color="rgb(39.076233%, 45.913696%, 77.813721%)" offset="0.785156"/><stop stop-opacity="1" stop-color="rgb(40.261841%, 45.225525%, 77.333069%)" offset="0.789062"/><stop stop-opacity="1" stop-color="rgb(41.445923%, 44.537354%, 76.850891%)" offset="0.792969"/><stop stop-opacity="1" stop-color="rgb(42.631531%, 43.849182%, 76.370239%)" offset="0.796875"/><stop stop-opacity="1" stop-color="rgb(43.815613%, 43.161011%, 75.888062%)" offset="0.800781"/><stop stop-opacity="1" stop-color="rgb(45.001221%, 42.474365%, 75.405884%)" offset="0.804687"/><stop stop-opacity="1" stop-color="rgb(46.185303%, 41.786194%, 74.923706%)" offset="0.808594"/><stop stop-opacity="1" stop-color="rgb(47.370911%, 41.098022%, 74.443054%)" offset="0.8125"/><stop stop-opacity="1" stop-color="rgb(48.554993%, 40.409851%, 73.960876%)" offset="0.816406"/><stop stop-opacity="1" stop-color="rgb(49.740601%, 39.72168%, 73.480225%)" offset="0.820312"/><stop stop-opacity="1" stop-color="rgb(50.924683%, 39.033508%, 72.998047%)" offset="0.824219"/><stop stop-opacity="1" stop-color="rgb(52.110291%, 38.346863%, 72.517395%)" offset="0.828125"/><stop stop-opacity="1" stop-color="rgb(53.294373%, 37.658691%, 72.035217%)" offset="0.832031"/><stop stop-opacity="1" stop-color="rgb(54.47998%, 36.97052%, 71.55304%)" offset="0.835938"/><stop stop-opacity="1" stop-color="rgb(55.665588%, 36.282349%, 71.070862%)" offset="0.839844"/><stop stop-opacity="1" stop-color="rgb(56.851196%, 35.594177%, 70.59021%)" offset="0.84375"/><stop stop-opacity="1" stop-color="rgb(58.035278%, 34.906006%, 70.108032%)" offset="0.847656"/><stop stop-opacity="1" stop-color="rgb(59.220886%, 34.21936%, 69.62738%)" offset="0.851563"/><stop stop-opacity="1" stop-color="rgb(60.404968%, 33.531189%, 69.145203%)" offset="0.855469"/><stop stop-opacity="1" stop-color="rgb(61.590576%, 32.843018%, 68.663025%)" offset="0.859375"/><stop stop-opacity="1" stop-color="rgb(62.774658%, 32.154846%, 68.180847%)" offset="0.863281"/><stop stop-opacity="1" stop-color="rgb(63.960266%, 31.466675%, 67.700195%)" offset="0.867188"/><stop stop-opacity="1" stop-color="rgb(65.144348%, 30.778503%, 67.218018%)" offset="0.871094"/><stop stop-opacity="1" stop-color="rgb(66.329956%, 30.091858%, 66.737366%)" offset="0.875"/><stop stop-opacity="1" stop-color="rgb(67.514038%, 29.403687%, 66.255188%)" offset="0.878906"/><stop stop-opacity="1" stop-color="rgb(68.699646%, 28.715515%, 65.77301%)" offset="0.882813"/><stop stop-opacity="1" stop-color="rgb(69.883728%, 28.027344%, 65.290833%)" offset="0.886719"/><stop stop-opacity="1" stop-color="rgb(71.069336%, 27.339172%, 64.810181%)" offset="0.890625"/><stop stop-opacity="1" stop-color="rgb(72.253418%, 26.651001%, 64.328003%)" offset="0.894531"/><stop stop-opacity="1" stop-color="rgb(73.439026%, 25.964355%, 63.847351%)" offset="0.898438"/><stop stop-opacity="1" stop-color="rgb(74.624634%, 25.276184%, 63.365173%)" offset="0.902344"/><stop stop-opacity="1" stop-color="rgb(75.810242%, 24.588013%, 62.882996%)" offset="0.90625"/><stop stop-opacity="1" stop-color="rgb(76.994324%, 23.899841%, 62.400818%)" offset="0.910156"/><stop stop-opacity="1" stop-color="rgb(78.179932%, 23.213196%, 61.920166%)" offset="0.914062"/><stop stop-opacity="1" stop-color="rgb(79.364014%, 22.525024%, 61.437988%)" offset="0.917969"/><stop stop-opacity="1" stop-color="rgb(80.549622%, 21.836853%, 60.957336%)" offset="0.921875"/><stop stop-opacity="1" stop-color="rgb(81.733704%, 21.148682%, 60.475159%)" offset="0.925781"/><stop stop-opacity="1" stop-color="rgb(82.919312%, 20.46051%, 59.992981%)" offset="0.929688"/><stop stop-opacity="1" stop-color="rgb(84.103394%, 19.772339%, 59.510803%)" offset="0.933594"/><stop stop-opacity="1" stop-color="rgb(85.289001%, 19.085693%, 59.030151%)" offset="0.9375"/><stop stop-opacity="1" stop-color="rgb(86.473083%, 18.397522%, 58.547974%)" offset="0.941406"/><stop stop-opacity="1" stop-color="rgb(87.658691%, 17.709351%, 58.067322%)" offset="0.945312"/><stop stop-opacity="1" stop-color="rgb(88.842773%, 17.021179%, 57.585144%)" offset="0.949219"/><stop stop-opacity="1" stop-color="rgb(90.028381%, 16.333008%, 57.102966%)" offset="0.953125"/><stop stop-opacity="1" stop-color="rgb(91.212463%, 15.644836%, 56.620789%)" offset="0.957031"/><stop stop-opacity="1" stop-color="rgb(92.398071%, 14.958191%, 56.140137%)" offset="0.960937"/><stop stop-opacity="1" stop-color="rgb(92.448425%, 14.927673%, 56.118774%)" offset="0.96875"/><stop stop-opacity="1" stop-color="rgb(92.498779%, 14.898682%, 56.098938%)" offset="1"/></linearGradient></defs><g clip-path="url(#89b373e7ba)"><g clip-path="url(#04d3f7bd9a)"><path fill="url(#fd245d153b)" d="M 12.574219 4.957031 L 12.574219 144.757812 L 104.660156 144.757812 L 104.660156 4.957031 Z M 12.574219 4.957031 " fill-rule="nonzero"/></g></g><g fill="#00afef" fill-opacity="1"><g transform="translate(129.812177, 86.141554)"><g><path d="M 14.558594 0.496094 C 23.5 0.496094 28.121094 -3.082031 28.121094 -9.9375 C 28.121094 -21.863281 11.527344 -16.695312 11.527344 -24.742188 C 11.527344 -27.128906 12.472656 -28.71875 15.351562 -28.71875 C 17.738281 -28.71875 19.128906 -28.023438 19.578125 -25.9375 C 20.171875 -23.152344 20.96875 -21.664062 23.5 -21.664062 C 26.035156 -21.664062 27.773438 -23.054688 27.574219 -25.785156 C 27.128906 -31.648438 23.253906 -34.929688 15.5 -34.929688 C 7.503906 -34.929688 2.929688 -31.996094 2.929688 -24.542969 C 2.929688 -12.371094 18.78125 -16.246094 18.78125 -9.339844 C 18.78125 -7.304688 17.539062 -6.308594 14.855469 -6.308594 C 13.265625 -6.308594 12.125 -6.609375 11.378906 -7.304688 C 9.6875 -9.140625 9.242188 -10.582031 6.855469 -10.582031 L 6.410156 -10.582031 C 3.875 -10.582031 1.988281 -8.992188 2.734375 -6.261719 C 3.976562 -1.839844 7.949219 0.496094 14.558594 0.496094 Z M 14.558594 0.496094 "/></g></g></g><g fill="#00afef" fill-opacity="1"><g transform="translate(166.47067, 86.141554)"><g><path d="M 27.375 -4.273438 C 27.328125 -8.746094 27.226562 -12.917969 27.328125 -16.394531 C 27.527344 -24.59375 24.890625 -27.921875 19.675781 -27.921875 C 15.851562 -27.921875 12.917969 -26.285156 11.03125 -22.804688 L 10.980469 -22.90625 C 11.328125 -24.941406 11.328125 -27.027344 11.328125 -29.316406 C 11.328125 -30.109375 11.328125 -31.300781 11.328125 -32.59375 C 11.328125 -34.78125 9.886719 -35.972656 7.15625 -35.972656 L 6.808594 -35.972656 C 4.074219 -35.972656 2.582031 -34.480469 2.582031 -31.75 C 2.632812 -27.226562 2.734375 -23.003906 2.734375 -18.53125 C 2.734375 -13.613281 2.632812 -8.992188 2.582031 -4.222656 C 2.582031 -1.492188 4.074219 0 6.808594 0 L 7.15625 0 C 9.886719 0 11.378906 -1.492188 11.378906 -4.222656 C 11.328125 -8.746094 11.230469 -13.167969 11.328125 -17.789062 C 12.125 -19.625 13.5625 -20.71875 15.5 -20.769531 C 17.738281 -20.816406 18.878906 -19.726562 18.878906 -16.496094 C 18.878906 -13.066406 18.832031 -8.84375 18.78125 -4.273438 C 18.78125 -1.492188 20.273438 0 23.003906 0 L 23.152344 0 C 25.886719 0 27.375 -1.492188 27.375 -4.273438 Z M 27.375 -4.273438 "/></g></g></g><g fill="#00afef" fill-opacity="1"><g transform="translate(203.327826, 86.141554)"><g><path d="M 14.558594 0.597656 C 23.003906 0.597656 27.128906 -4.125 27.128906 -13.664062 C 27.128906 -23.152344 23.003906 -27.921875 14.558594 -27.921875 C 6.011719 -27.921875 1.789062 -23.152344 1.789062 -13.664062 C 1.789062 -4.125 6.011719 0.597656 14.558594 0.597656 Z M 14.558594 -5.464844 C 12.023438 -5.464844 10.285156 -7.054688 10.285156 -13.664062 C 10.285156 -19.726562 11.425781 -21.863281 14.558594 -21.863281 C 17.441406 -21.863281 18.632812 -19.726562 18.632812 -13.664062 C 18.632812 -7.054688 16.894531 -5.464844 14.558594 -5.464844 Z M 14.558594 -5.464844 "/></g></g></g><g fill="#00afef" fill-opacity="1"><g transform="translate(238.843915, 86.141554)"><g><path d="M 18.683594 -27.875 C 18.382812 -27.921875 17.984375 -27.972656 17.441406 -27.972656 C 14.160156 -27.972656 11.875 -25.089844 11.078125 -21.015625 L 10.929688 -21.117188 L 10.929688 -24.347656 C 10.929688 -26.433594 9.488281 -27.527344 6.90625 -27.527344 C 4.324219 -27.527344 2.882812 -26.035156 2.882812 -23.300781 C 2.929688 -20.121094 2.980469 -17.042969 2.980469 -13.761719 C 2.980469 -10.484375 2.929688 -7.402344 2.882812 -4.222656 C 2.882812 -1.492188 4.371094 0 7.105469 0 L 7.253906 0 C 10.035156 0 11.476562 -1.539062 11.378906 -4.324219 C 11.328125 -6.410156 11.277344 -8.445312 11.277344 -10.484375 C 11.277344 -11.527344 11.328125 -12.667969 11.328125 -13.761719 L 11.328125 -14.957031 C 12.222656 -17.636719 13.761719 -19.078125 15.949219 -19.078125 C 16.695312 -19.078125 17.289062 -18.980469 17.9375 -18.78125 C 19.179688 -18.335938 20.71875 -19.03125 21.363281 -21.613281 C 21.664062 -22.757812 21.710938 -23.949219 21.363281 -25.089844 C 20.71875 -27.027344 19.578125 -27.675781 18.683594 -27.875 Z M 18.683594 -27.875 "/></g></g></g><g fill="#00afef" fill-opacity="1"><g transform="translate(267.108257, 86.141554)"><g><path d="M 15.75 -6.011719 C 13.367188 -5.960938 12.320312 -7.304688 12.320312 -10.1875 C 12.320312 -12.769531 12.273438 -15.699219 12.371094 -18.53125 C 12.371094 -19.425781 12.421875 -20.273438 12.421875 -21.167969 L 16.296875 -21.214844 C 18.78125 -21.214844 20.121094 -22.308594 20.121094 -24.347656 C 20.121094 -26.382812 18.632812 -27.476562 15.898438 -27.476562 L 12.421875 -27.476562 L 12.421875 -31.847656 C 12.421875 -34.480469 10.582031 -35.625 7.800781 -34.730469 C 5.464844 -33.984375 4.324219 -32.445312 4.324219 -29.960938 C 4.324219 -29.117188 4.371094 -28.320312 4.371094 -27.476562 L 2.285156 -27.476562 C 0.945312 -27.476562 0.148438 -26.332031 0.148438 -24.296875 C 0.148438 -22.257812 1.640625 -21.117188 4.371094 -21.117188 L 4.421875 -21.117188 L 4.421875 -18.53125 C 4.421875 -15.351562 4.421875 -12.125 4.371094 -9.191406 C 4.222656 -1.988281 8.199219 0.597656 14.359375 0.597656 C 15.5 0.597656 16.644531 0.496094 17.636719 0.296875 C 19.824219 -0.148438 20.667969 -1.789062 20.46875 -3.925781 C 20.273438 -5.960938 18.632812 -6.113281 15.75 -6.011719 Z M 15.75 -6.011719 "/></g></g></g><g fill="#00afef" fill-opacity="1"><g transform="translate(295.07458, 86.141554)"><g><path d="M 7.054688 -30.953125 C 10.730469 -30.953125 12.222656 -32.195312 12.222656 -35.175781 C 12.222656 -38.160156 10.730469 -39.402344 7.054688 -39.402344 C 3.378906 -39.402344 1.886719 -38.160156 1.886719 -35.175781 C 1.886719 -32.195312 3.378906 -30.953125 7.054688 -30.953125 Z M 7.203125 0 C 9.9375 0 11.378906 -1.492188 11.328125 -4.222656 C 11.328125 -7.054688 11.277344 -9.835938 11.328125 -12.71875 C 11.378906 -15.75 11.378906 -19.773438 11.378906 -23.253906 C 11.378906 -25.984375 9.886719 -27.476562 7.15625 -27.476562 L 7.105469 -27.476562 C 4.371094 -27.476562 2.882812 -25.984375 2.882812 -23.300781 C 2.929688 -20.171875 2.929688 -15.800781 2.980469 -8.445312 L 2.980469 -4.222656 C 2.980469 -1.492188 4.472656 0 7.203125 0 Z M 7.203125 0 "/></g></g></g><g fill="#ec268f" fill-opacity="1"><g transform="translate(129.812177, 115.312305)"><g><path d="M 5.5625 0.140625 C 4.65625 0.140625 3.859375 -0.0351562 3.171875 -0.390625 C 2.484375 -0.742188 1.945312 -1.238281 1.5625 -1.875 C 1.175781 -2.519531 0.984375 -3.257812 0.984375 -4.09375 L 0.984375 -12.0625 C 0.984375 -12.257812 1.082031 -12.359375 1.28125 -12.359375 L 3.171875 -12.359375 C 3.378906 -12.359375 3.484375 -12.257812 3.484375 -12.0625 L 3.484375 -4.078125 C 3.484375 -3.453125 3.671875 -2.945312 4.046875 -2.5625 C 4.429688 -2.1875 4.9375 -2 5.5625 -2 C 6.1875 -2 6.6875 -2.1875 7.0625 -2.5625 C 7.445312 -2.945312 7.640625 -3.453125 7.640625 -4.078125 L 7.640625 -12.0625 C 7.640625 -12.257812 7.742188 -12.359375 7.953125 -12.359375 L 9.828125 -12.359375 C 10.035156 -12.359375 10.140625 -12.257812 10.140625 -12.0625 L 10.140625 -4.09375 C 10.140625 -3.257812 9.945312 -2.519531 9.5625 -1.875 C 9.175781 -1.238281 8.640625 -0.742188 7.953125 -0.390625 C 7.265625 -0.0351562 6.46875 0.140625 5.5625 0.140625 Z M 5.5625 0.140625 "/></g></g></g><g fill="#ec268f" fill-opacity="1"><g transform="translate(147.367145, 115.312305)"><g><path d="M 7.921875 0 C 7.773438 0 7.660156 -0.078125 7.578125 -0.234375 L 5.40625 -5.03125 C 5.382812 -5.09375 5.34375 -5.125 5.28125 -5.125 L 3.671875 -5.125 C 3.597656 -5.125 3.5625 -5.085938 3.5625 -5.015625 L 3.5625 -0.296875 C 3.5625 -0.0976562 3.460938 0 3.265625 0 L 1.375 0 C 1.175781 0 1.078125 -0.0976562 1.078125 -0.296875 L 1.078125 -12.078125 C 1.078125 -12.273438 1.175781 -12.375 1.375 -12.375 L 6.34375 -12.375 C 7.09375 -12.375 7.753906 -12.21875 8.328125 -11.90625 C 8.898438 -11.59375 9.335938 -11.15625 9.640625 -10.59375 C 9.953125 -10.03125 10.109375 -9.382812 10.109375 -8.65625 C 10.109375 -7.851562 9.910156 -7.160156 9.515625 -6.578125 C 9.117188 -6.003906 8.566406 -5.601562 7.859375 -5.375 C 7.816406 -5.351562 7.789062 -5.328125 7.78125 -5.296875 C 7.769531 -5.273438 7.773438 -5.25 7.796875 -5.21875 L 10.140625 -0.359375 C 10.171875 -0.304688 10.1875 -0.25 10.1875 -0.1875 C 10.1875 -0.132812 10.160156 -0.0859375 10.109375 -0.046875 C 10.066406 -0.015625 10.003906 0 9.921875 0 Z M 3.671875 -10.21875 C 3.597656 -10.21875 3.5625 -10.179688 3.5625 -10.109375 L 3.5625 -7.15625 C 3.5625 -7.082031 3.597656 -7.046875 3.671875 -7.046875 L 5.96875 -7.046875 C 6.457031 -7.046875 6.859375 -7.1875 7.171875 -7.46875 C 7.484375 -7.757812 7.640625 -8.140625 7.640625 -8.609375 C 7.640625 -9.085938 7.484375 -9.472656 7.171875 -9.765625 C 6.859375 -10.066406 6.457031 -10.21875 5.96875 -10.21875 Z M 3.671875 -10.21875 "/></g></g></g><g fill="#ec268f" fill-opacity="1"><g transform="translate(164.657293, 115.312305)"><g><path d="M 1.375 0 C 1.175781 0 1.078125 -0.0976562 1.078125 -0.296875 L 1.078125 -12.0625 C 1.078125 -12.257812 1.175781 -12.359375 1.375 -12.359375 L 3.265625 -12.359375 C 3.460938 -12.359375 3.5625 -12.257812 3.5625 -12.0625 L 3.5625 -2.25 C 3.5625 -2.175781 3.597656 -2.140625 3.671875 -2.140625 L 9.34375 -2.140625 C 9.539062 -2.140625 9.640625 -2.039062 9.640625 -1.84375 L 9.640625 -0.296875 C 9.640625 -0.0976562 9.539062 0 9.34375 0 Z M 1.375 0 "/></g></g></g><g fill="#ec268f" fill-opacity="1"><g transform="translate(181.205906, 115.312305)"><g/></g></g><g fill="#ec268f" fill-opacity="1"><g transform="translate(191.186742, 115.312305)"><g><path d="M 5.265625 0.140625 C 4.347656 0.140625 3.539062 -0.0078125 2.84375 -0.3125 C 2.144531 -0.625 1.609375 -1.054688 1.234375 -1.609375 C 0.859375 -2.160156 0.671875 -2.804688 0.671875 -3.546875 L 0.671875 -3.84375 C 0.671875 -4.050781 0.769531 -4.15625 0.96875 -4.15625 L 2.828125 -4.15625 C 3.023438 -4.15625 3.125 -4.078125 3.125 -3.921875 L 3.125 -3.671875 C 3.125 -3.203125 3.335938 -2.804688 3.765625 -2.484375 C 4.203125 -2.160156 4.765625 -2 5.453125 -2 C 6.078125 -2 6.539062 -2.128906 6.84375 -2.390625 C 7.144531 -2.660156 7.296875 -2.988281 7.296875 -3.375 C 7.296875 -3.65625 7.203125 -3.890625 7.015625 -4.078125 C 6.828125 -4.273438 6.570312 -4.445312 6.25 -4.59375 C 5.9375 -4.738281 5.425781 -4.941406 4.71875 -5.203125 C 3.914062 -5.472656 3.242188 -5.75 2.703125 -6.03125 C 2.160156 -6.320312 1.703125 -6.707031 1.328125 -7.1875 C 0.953125 -7.675781 0.765625 -8.28125 0.765625 -9 C 0.765625 -9.707031 0.945312 -10.328125 1.3125 -10.859375 C 1.675781 -11.390625 2.179688 -11.796875 2.828125 -12.078125 C 3.484375 -12.359375 4.226562 -12.5 5.0625 -12.5 C 5.957031 -12.5 6.757812 -12.335938 7.46875 -12.015625 C 8.175781 -11.703125 8.726562 -11.257812 9.125 -10.6875 C 9.519531 -10.113281 9.71875 -9.453125 9.71875 -8.703125 L 9.71875 -8.53125 C 9.71875 -8.332031 9.613281 -8.234375 9.40625 -8.234375 L 7.5625 -8.234375 C 7.351562 -8.234375 7.25 -8.289062 7.25 -8.40625 L 7.25 -8.578125 C 7.25 -9.078125 7.046875 -9.5 6.640625 -9.84375 C 6.234375 -10.1875 5.679688 -10.359375 4.984375 -10.359375 C 4.410156 -10.359375 3.972656 -10.238281 3.671875 -10 C 3.367188 -9.769531 3.21875 -9.453125 3.21875 -9.046875 C 3.21875 -8.742188 3.304688 -8.492188 3.484375 -8.296875 C 3.660156 -8.097656 3.925781 -7.914062 4.28125 -7.75 C 4.632812 -7.582031 5.191406 -7.367188 5.953125 -7.109375 C 6.773438 -6.804688 7.425781 -6.539062 7.90625 -6.3125 C 8.394531 -6.082031 8.828125 -5.734375 9.203125 -5.265625 C 9.585938 -4.796875 9.78125 -4.1875 9.78125 -3.4375 C 9.78125 -2.71875 9.59375 -2.085938 9.21875 -1.546875 C 8.851562 -1.003906 8.332031 -0.585938 7.65625 -0.296875 C 6.976562 -0.00390625 6.179688 0.140625 5.265625 0.140625 Z M 5.265625 0.140625 "/></g></g></g><g fill="#ec268f" fill-opacity="1"><g transform="translate(208.088467, 115.312305)"><g><path d="M 7.640625 -12.0625 C 7.640625 -12.257812 7.742188 -12.359375 7.953125 -12.359375 L 9.828125 -12.359375 C 10.035156 -12.359375 10.140625 -12.257812 10.140625 -12.0625 L 10.140625 -0.296875 C 10.140625 -0.0976562 10.035156 0 9.828125 0 L 7.953125 0 C 7.742188 0 7.640625 -0.0976562 7.640625 -0.296875 L 7.640625 -5.0625 C 7.640625 -5.132812 7.609375 -5.171875 7.546875 -5.171875 L 3.671875 -5.171875 C 3.597656 -5.171875 3.5625 -5.132812 3.5625 -5.0625 L 3.5625 -0.296875 C 3.5625 -0.0976562 3.460938 0 3.265625 0 L 1.375 0 C 1.175781 0 1.078125 -0.0976562 1.078125 -0.296875 L 1.078125 -12.0625 C 1.078125 -12.257812 1.175781 -12.359375 1.375 -12.359375 L 3.265625 -12.359375 C 3.460938 -12.359375 3.5625 -12.257812 3.5625 -12.0625 L 3.5625 -7.421875 C 3.5625 -7.347656 3.597656 -7.3125 3.671875 -7.3125 L 7.546875 -7.3125 C 7.609375 -7.3125 7.640625 -7.347656 7.640625 -7.421875 Z M 7.640625 -12.0625 "/></g></g></g><g fill="#ec268f" fill-opacity="1"><g transform="translate(225.62578, 115.312305)"><g><path d="M 5.46875 0.1875 C 4.550781 0.1875 3.742188 0 3.046875 -0.375 C 2.347656 -0.75 1.800781 -1.273438 1.40625 -1.953125 C 1.019531 -2.628906 0.828125 -3.410156 0.828125 -4.296875 L 0.828125 -8.0625 C 0.828125 -8.9375 1.019531 -9.707031 1.40625 -10.375 C 1.800781 -11.050781 2.347656 -11.570312 3.046875 -11.9375 C 3.742188 -12.3125 4.550781 -12.5 5.46875 -12.5 C 6.40625 -12.5 7.222656 -12.3125 7.921875 -11.9375 C 8.617188 -11.570312 9.160156 -11.050781 9.546875 -10.375 C 9.941406 -9.707031 10.140625 -8.9375 10.140625 -8.0625 L 10.140625 -4.296875 C 10.140625 -3.410156 9.941406 -2.625 9.546875 -1.9375 C 9.160156 -1.257812 8.617188 -0.734375 7.921875 -0.359375 C 7.222656 0.00390625 6.40625 0.1875 5.46875 0.1875 Z M 5.46875 -1.9375 C 6.113281 -1.9375 6.632812 -2.140625 7.03125 -2.546875 C 7.4375 -2.960938 7.640625 -3.515625 7.640625 -4.203125 L 7.640625 -8.09375 C 7.640625 -8.769531 7.441406 -9.316406 7.046875 -9.734375 C 6.660156 -10.148438 6.132812 -10.359375 5.46875 -10.359375 C 4.820312 -10.359375 4.300781 -10.148438 3.90625 -9.734375 C 3.507812 -9.316406 3.3125 -8.769531 3.3125 -8.09375 L 3.3125 -4.203125 C 3.3125 -3.515625 3.507812 -2.960938 3.90625 -2.546875 C 4.300781 -2.140625 4.820312 -1.9375 5.46875 -1.9375 Z M 5.46875 -1.9375 "/></g></g></g><g fill="#ec268f" fill-opacity="1"><g transform="translate(243.03951, 115.312305)"><g><path d="M 7.921875 0 C 7.773438 0 7.660156 -0.078125 7.578125 -0.234375 L 5.40625 -5.03125 C 5.382812 -5.09375 5.34375 -5.125 5.28125 -5.125 L 3.671875 -5.125 C 3.597656 -5.125 3.5625 -5.085938 3.5625 -5.015625 L 3.5625 -0.296875 C 3.5625 -0.0976562 3.460938 0 3.265625 0 L 1.375 0 C 1.175781 0 1.078125 -0.0976562 1.078125 -0.296875 L 1.078125 -12.078125 C 1.078125 -12.273438 1.175781 -12.375 1.375 -12.375 L 6.34375 -12.375 C 7.09375 -12.375 7.753906 -12.21875 8.328125 -11.90625 C 8.898438 -11.59375 9.335938 -11.15625 9.640625 -10.59375 C 9.953125 -10.03125 10.109375 -9.382812 10.109375 -8.65625 C 10.109375 -7.851562 9.910156 -7.160156 9.515625 -6.578125 C 9.117188 -6.003906 8.566406 -5.601562 7.859375 -5.375 C 7.816406 -5.351562 7.789062 -5.328125 7.78125 -5.296875 C 7.769531 -5.273438 7.773438 -5.25 7.796875 -5.21875 L 10.140625 -0.359375 C 10.171875 -0.304688 10.1875 -0.25 10.1875 -0.1875 C 10.1875 -0.132812 10.160156 -0.0859375 10.109375 -0.046875 C 10.066406 -0.015625 10.003906 0 9.921875 0 Z M 3.671875 -10.21875 C 3.597656 -10.21875 3.5625 -10.179688 3.5625 -10.109375 L 3.5625 -7.15625 C 3.5625 -7.082031 3.597656 -7.046875 3.671875 -7.046875 L 5.96875 -7.046875 C 6.457031 -7.046875 6.859375 -7.1875 7.171875 -7.46875 C 7.484375 -7.757812 7.640625 -8.140625 7.640625 -8.609375 C 7.640625 -9.085938 7.484375 -9.472656 7.171875 -9.765625 C 6.859375 -10.066406 6.457031 -10.21875 5.96875 -10.21875 Z M 3.671875 -10.21875 "/></g></g></g><g fill="#ec268f" fill-opacity="1"><g transform="translate(260.329655, 115.312305)"><g><path d="M 9.515625 -12.359375 C 9.710938 -12.359375 9.8125 -12.257812 9.8125 -12.0625 L 9.8125 -10.5 C 9.8125 -10.300781 9.710938 -10.203125 9.515625 -10.203125 L 6.46875 -10.203125 C 6.394531 -10.203125 6.359375 -10.164062 6.359375 -10.09375 L 6.359375 -0.296875 C 6.359375 -0.0976562 6.257812 0 6.0625 0 L 4.171875 0 C 3.960938 0 3.859375 -0.0976562 3.859375 -0.296875 L 3.859375 -10.09375 C 3.859375 -10.164062 3.828125 -10.203125 3.765625 -10.203125 L 0.796875 -10.203125 C 0.597656 -10.203125 0.5 -10.300781 0.5 -10.5 L 0.5 -12.0625 C 0.5 -12.257812 0.597656 -12.359375 0.796875 -12.359375 Z M 9.515625 -12.359375 "/></g></g></g><g fill="#ec268f" fill-opacity="1"><g transform="translate(277.107797, 115.312305)"><g><path d="M 9.65625 -10.515625 C 9.65625 -10.316406 9.554688 -10.21875 9.359375 -10.21875 L 3.671875 -10.21875 C 3.597656 -10.21875 3.5625 -10.179688 3.5625 -10.109375 L 3.5625 -7.421875 C 3.5625 -7.347656 3.597656 -7.3125 3.671875 -7.3125 L 7.359375 -7.3125 C 7.554688 -7.3125 7.65625 -7.210938 7.65625 -7.015625 L 7.65625 -5.46875 C 7.65625 -5.269531 7.554688 -5.171875 7.359375 -5.171875 L 3.671875 -5.171875 C 3.597656 -5.171875 3.5625 -5.132812 3.5625 -5.0625 L 3.5625 -2.25 C 3.5625 -2.175781 3.597656 -2.140625 3.671875 -2.140625 L 9.359375 -2.140625 C 9.554688 -2.140625 9.65625 -2.039062 9.65625 -1.84375 L 9.65625 -0.296875 C 9.65625 -0.0976562 9.554688 0 9.359375 0 L 1.375 0 C 1.175781 0 1.078125 -0.0976562 1.078125 -0.296875 L 1.078125 -12.0625 C 1.078125 -12.257812 1.175781 -12.359375 1.375 -12.359375 L 9.359375 -12.359375 C 9.554688 -12.359375 9.65625 -12.257812 9.65625 -12.0625 Z M 9.65625 -10.515625 "/></g></g></g><g fill="#ec268f" fill-opacity="1"><g transform="translate(293.868278, 115.312305)"><g><path d="M 1.375 0 C 1.175781 0 1.078125 -0.0976562 1.078125 -0.296875 L 1.078125 -12.0625 C 1.078125 -12.257812 1.175781 -12.359375 1.375 -12.359375 L 3.203125 -12.359375 C 3.347656 -12.359375 3.460938 -12.296875 3.546875 -12.171875 L 7.96875 -4.8125 C 7.988281 -4.769531 8.015625 -4.753906 8.046875 -4.765625 C 8.078125 -4.773438 8.09375 -4.804688 8.09375 -4.859375 L 8.09375 -12.0625 C 8.09375 -12.257812 8.191406 -12.359375 8.390625 -12.359375 L 10.234375 -12.359375 C 10.441406 -12.359375 10.546875 -12.257812 10.546875 -12.0625 L 10.546875 -0.296875 C 10.546875 -0.0976562 10.441406 0 10.234375 0 L 8.4375 0 C 8.300781 0 8.1875 -0.0703125 8.09375 -0.21875 L 3.65625 -7.625 C 3.632812 -7.675781 3.609375 -7.691406 3.578125 -7.671875 C 3.546875 -7.660156 3.53125 -7.632812 3.53125 -7.59375 L 3.546875 -0.296875 C 3.546875 -0.0976562 3.445312 0 3.25 0 Z M 1.375 0 "/></g></g></g><g fill="#ec268f" fill-opacity="1"><g transform="translate(311.935256, 115.312305)"><g><path d="M 9.65625 -10.515625 C 9.65625 -10.316406 9.554688 -10.21875 9.359375 -10.21875 L 3.671875 -10.21875 C 3.597656 -10.21875 3.5625 -10.179688 3.5625 -10.109375 L 3.5625 -7.421875 C 3.5625 -7.347656 3.597656 -7.3125 3.671875 -7.3125 L 7.359375 -7.3125 C 7.554688 -7.3125 7.65625 -7.210938 7.65625 -7.015625 L 7.65625 -5.46875 C 7.65625 -5.269531 7.554688 -5.171875 7.359375 -5.171875 L 3.671875 -5.171875 C 3.597656 -5.171875 3.5625 -5.132812 3.5625 -5.0625 L 3.5625 -2.25 C 3.5625 -2.175781 3.597656 -2.140625 3.671875 -2.140625 L 9.359375 -2.140625 C 9.554688 -2.140625 9.65625 -2.039062 9.65625 -1.84375 L 9.65625 -0.296875 C 9.65625 -0.0976562 9.554688 0 9.359375 0 L 1.375 0 C 1.175781 0 1.078125 -0.0976562 1.078125 -0.296875 L 1.078125 -12.0625 C 1.078125 -12.257812 1.175781 -12.359375 1.375 -12.359375 L 9.359375 -12.359375 C 9.554688 -12.359375 9.65625 -12.257812 9.65625 -12.0625 Z M 9.65625 -10.515625 "/></g></g></g><g fill="#ec268f" fill-opacity="1"><g transform="translate(328.695737, 115.312305)"><g><path d="M 7.921875 0 C 7.773438 0 7.660156 -0.078125 7.578125 -0.234375 L 5.40625 -5.03125 C 5.382812 -5.09375 5.34375 -5.125 5.28125 -5.125 L 3.671875 -5.125 C 3.597656 -5.125 3.5625 -5.085938 3.5625 -5.015625 L 3.5625 -0.296875 C 3.5625 -0.0976562 3.460938 0 3.265625 0 L 1.375 0 C 1.175781 0 1.078125 -0.0976562 1.078125 -0.296875 L 1.078125 -12.078125 C 1.078125 -12.273438 1.175781 -12.375 1.375 -12.375 L 6.34375 -12.375 C 7.09375 -12.375 7.753906 -12.21875 8.328125 -11.90625 C 8.898438 -11.59375 9.335938 -11.15625 9.640625 -10.59375 C 9.953125 -10.03125 10.109375 -9.382812 10.109375 -8.65625 C 10.109375 -7.851562 9.910156 -7.160156 9.515625 -6.578125 C 9.117188 -6.003906 8.566406 -5.601562 7.859375 -5.375 C 7.816406 -5.351562 7.789062 -5.328125 7.78125 -5.296875 C 7.769531 -5.273438 7.773438 -5.25 7.796875 -5.21875 L 10.140625 -0.359375 C 10.171875 -0.304688 10.1875 -0.25 10.1875 -0.1875 C 10.1875 -0.132812 10.160156 -0.0859375 10.109375 -0.046875 C 10.066406 -0.015625 10.003906 0 9.921875 0 Z M 3.671875 -10.21875 C 3.597656 -10.21875 3.5625 -10.179688 3.5625 -10.109375 L 3.5625 -7.15625 C 3.5625 -7.082031 3.597656 -7.046875 3.671875 -7.046875 L 5.96875 -7.046875 C 6.457031 -7.046875 6.859375 -7.1875 7.171875 -7.46875 C 7.484375 -7.757812 7.640625 -8.140625 7.640625 -8.609375 C 7.640625 -9.085938 7.484375 -9.472656 7.171875 -9.765625 C 6.859375 -10.066406 6.457031 -10.21875 5.96875 -10.21875 Z M 3.671875 -10.21875 "/></g></g></g></svg>