<svg xmlns="http://www.w3.org/2000/svg" xmlns:xlink="http://www.w3.org/1999/xlink" width="360" zoomAndPan="magnify" viewBox="0 0 270 359.999987" height="480" preserveAspectRatio="xMidYMid meet" version="1.0"><defs><g/><clipPath id="06154e1f94"><path d="M 63.09375 13 L 206.347656 13 L 206.347656 230.414062 L 63.09375 230.414062 Z M 63.09375 13 " clip-rule="nonzero"/></clipPath><clipPath id="cbcbf2aaae"><path d="M 86.976562 119.40625 C 87.839844 120.625 88.679688 121.90625 89.722656 123.496094 C 93.9375 129.933594 101.441406 141.378906 107.988281 147.394531 C 111.042969 150.207031 111.871094 151.78125 111.960938 151.5625 C 113.429688 147.664062 112.980469 139.472656 112.097656 131.457031 C 111.425781 125.355469 110.460938 119.285156 109.492188 113.167969 C 107.65625 101.585938 105.789062 89.839844 105.703125 78.566406 C 102.421875 79.59375 99.1875 80.773438 96.1875 82.175781 C 92.175781 84.054688 88.554688 86.347656 85.839844 89.253906 C 82.039062 93.324219 80.5 97.855469 80.574219 102.394531 C 80.660156 108.101562 83.183594 114.058594 86.976562 119.414062 Z M 78.753906 130.683594 C 77.59375 128.917969 76.664062 127.496094 76.316406 127.007812 C 71.109375 119.652344 67.636719 111.140625 67.503906 102.539062 C 67.382812 94.757812 69.9375 87.085938 76.257812 80.3125 C 80.226562 76.0625 85.226562 72.84375 90.652344 70.304688 C 95.792969 67.90625 101.25 66.128906 106.523438 64.65625 L 106.667969 64.617188 C 108.753906 51.601562 114.535156 39.65625 127.195312 29.902344 C 129.996094 27.738281 132.980469 25.714844 136.058594 23.886719 C 145.875 18.0625 157.191406 13.878906 167.753906 13.183594 C 179.300781 12.425781 189.957031 15.714844 197.222656 25.175781 C 198.050781 26.253906 198.804688 27.363281 199.480469 28.507812 L 199.757812 28.976562 C 202.554688 33.707031 204.800781 37.496094 205.742188 41.308594 C 208.066406 50.714844 204.160156 56.34375 187.5 60.476562 C 183.214844 61.542969 175.894531 62.976562 166.925781 64.734375 C 152.738281 67.519531 134.429688 71.109375 118.996094 74.9375 C 118.496094 86.421875 120.46875 98.871094 122.40625 111.113281 C 123.433594 117.578125 124.453125 123.996094 125.117188 130.019531 C 126.179688 139.671875 126.570312 149.914062 124.207031 156.1875 C 120.292969 166.582031 112.789062 169.617188 99.121094 157.054688 C 91.355469 149.914062 83.289062 137.609375 78.757812 130.691406 Z M 135.1875 40.273438 C 127.777344 45.984375 123.457031 53.039062 121.152344 60.925781 C 135.734375 57.472656 151.710938 54.339844 164.402344 51.847656 C 173.382812 50.089844 180.71875 48.652344 184.367188 47.746094 C 191.234375 46.039062 193.207031 45.183594 193.027344 44.445312 C 192.558594 42.550781 190.742188 39.480469 188.476562 35.65625 L 188.199219 35.1875 C 187.753906 34.433594 187.304688 33.769531 186.867188 33.191406 C 182.632812 27.679688 175.976562 25.796875 168.570312 26.28125 C 160.183594 26.828125 150.925781 30.316406 142.71875 35.183594 C 140.023438 36.78125 137.492188 38.492188 135.1875 40.273438 Z M 182.46875 123.941406 C 181.949219 123.210938 180.96875 121.714844 179.753906 119.855469 L 179.730469 119.855469 C 175.511719 113.421875 168.007812 101.96875 161.464844 95.953125 C 158.40625 93.140625 157.578125 91.566406 157.488281 91.785156 C 156.019531 95.683594 156.46875 103.875 157.351562 111.890625 C 158.027344 117.992188 158.988281 124.0625 159.960938 130.179688 C 161.796875 141.761719 163.65625 153.507812 163.742188 164.78125 C 167.023438 163.753906 170.257812 162.574219 173.257812 161.171875 C 177.269531 159.292969 180.890625 157 183.605469 154.097656 C 187.40625 150.023438 188.945312 145.503906 188.871094 140.980469 L 188.871094 140.953125 C 188.785156 135.246094 186.261719 129.292969 182.46875 123.9375 Z M 190.679688 112.679688 C 191.65625 114.164062 192.441406 115.363281 193.128906 116.339844 C 198.332031 123.691406 201.796875 132.191406 201.941406 140.777344 C 202.0625 148.574219 199.507812 156.257812 193.1875 163.03125 C 189.21875 167.28125 184.21875 170.5 178.792969 173.035156 C 173.65625 175.4375 168.191406 177.214844 162.921875 178.683594 L 162.777344 178.726562 C 160.691406 191.742188 154.914062 203.6875 142.253906 213.441406 C 139.453125 215.605469 136.46875 217.628906 133.390625 219.457031 C 123.574219 225.28125 112.253906 229.464844 101.695312 230.160156 C 90.152344 230.917969 79.496094 227.628906 72.230469 218.167969 C 71.40625 217.089844 70.648438 215.980469 69.976562 214.835938 L 69.699219 214.367188 C 66.902344 209.636719 64.65625 205.847656 63.710938 202.03125 C 61.390625 192.628906 65.292969 187 81.953125 182.867188 C 86.242188 181.804688 93.5625 180.367188 102.53125 178.605469 C 116.714844 175.824219 135.03125 172.230469 150.460938 168.40625 C 150.957031 156.921875 148.988281 144.472656 147.046875 132.230469 C 146.023438 125.761719 145.003906 119.347656 144.339844 113.324219 C 143.273438 103.667969 142.882812 93.429688 145.246094 87.160156 C 149.164062 76.765625 156.664062 73.730469 170.332031 86.292969 C 178.097656 93.433594 186.167969 105.742188 190.699219 112.660156 L 190.679688 112.667969 Z M 134.257812 203.074219 C 141.667969 197.363281 145.988281 190.308594 148.292969 182.425781 C 133.710938 185.878906 117.730469 189.015625 105.039062 191.503906 C 96.058594 193.265625 88.726562 194.703125 85.078125 195.605469 C 78.210938 197.308594 76.238281 198.167969 76.417969 198.90625 C 76.886719 200.800781 78.703125 203.871094 80.96875 207.699219 L 81.246094 208.171875 C 81.691406 208.921875 82.136719 209.589844 82.578125 210.164062 C 86.8125 215.675781 93.46875 217.558594 100.875 217.078125 C 109.261719 216.523438 118.519531 213.042969 126.726562 208.171875 C 129.421875 206.570312 131.957031 204.859375 134.257812 203.078125 Z M 134.257812 203.074219 " clip-rule="nonzero"/></clipPath><linearGradient x1="262.435604" gradientTransform="matrix(0.488142, 0, 0, 0.489053, 63.092933, 13.07742)" y1="-6.285514" x2="169.302872" gradientUnits="userSpaceOnUse" y2="477.029289" id="837abd37ad"><stop stop-opacity="1" stop-color="rgb(100%, 94.898987%, 7.099915%)" offset="0"/><stop stop-opacity="1" stop-color="rgb(100%, 94.898987%, 7.099915%)" offset="0.03125"/><stop stop-opacity="1" stop-color="rgb(99.281311%, 94.689941%, 7.298279%)" offset="0.0351562"/><stop stop-opacity="1" stop-color="rgb(98.564148%, 94.482422%, 7.498169%)" offset="0.0390625"/><stop stop-opacity="1" stop-color="rgb(97.355652%, 94.13147%, 7.833862%)" offset="0.0429688"/><stop stop-opacity="1" stop-color="rgb(96.148682%, 93.782043%, 8.169556%)" offset="0.046875"/><stop stop-opacity="1" stop-color="rgb(94.940186%, 93.431091%, 8.505249%)" offset="0.0507812"/><stop stop-opacity="1" stop-color="rgb(93.733215%, 93.081665%, 8.840942%)" offset="0.0546875"/><stop stop-opacity="1" stop-color="rgb(92.524719%, 92.730713%, 9.176636%)" offset="0.0585938"/><stop stop-opacity="1" stop-color="rgb(91.317749%, 92.381287%, 9.512329%)" offset="0.0625"/><stop stop-opacity="1" stop-color="rgb(90.110779%, 92.030334%, 9.848022%)" offset="0.0664062"/><stop stop-opacity="1" stop-color="rgb(88.903809%, 91.680908%, 10.183716%)" offset="0.0703125"/><stop stop-opacity="1" stop-color="rgb(87.695312%, 91.329956%, 10.519409%)" offset="0.0742187"/><stop stop-opacity="1" stop-color="rgb(86.488342%, 90.98053%, 10.855103%)" offset="0.078125"/><stop stop-opacity="1" stop-color="rgb(85.279846%, 90.629578%, 11.190796%)" offset="0.0820312"/><stop stop-opacity="1" stop-color="rgb(84.072876%, 90.280151%, 11.526489%)" offset="0.0859375"/><stop stop-opacity="1" stop-color="rgb(82.86438%, 89.929199%, 11.862183%)" offset="0.0898437"/><stop stop-opacity="1" stop-color="rgb(81.65741%, 89.579773%, 12.197876%)" offset="0.09375"/><stop stop-opacity="1" stop-color="rgb(80.448914%, 89.228821%, 12.533569%)" offset="0.0976562"/><stop stop-opacity="1" stop-color="rgb(79.241943%, 88.879395%, 12.869263%)" offset="0.101562"/><stop stop-opacity="1" stop-color="rgb(78.033447%, 88.528442%, 13.204956%)" offset="0.105469"/><stop stop-opacity="1" stop-color="rgb(76.826477%, 88.179016%, 13.540649%)" offset="0.109375"/><stop stop-opacity="1" stop-color="rgb(75.619507%, 87.828064%, 13.876343%)" offset="0.113281"/><stop stop-opacity="1" stop-color="rgb(74.412537%, 87.478638%, 14.212036%)" offset="0.117188"/><stop stop-opacity="1" stop-color="rgb(73.204041%, 87.127686%, 14.547729%)" offset="0.121094"/><stop stop-opacity="1" stop-color="rgb(71.99707%, 86.778259%, 14.883423%)" offset="0.125"/><stop stop-opacity="1" stop-color="rgb(70.788574%, 86.427307%, 15.219116%)" offset="0.128906"/><stop stop-opacity="1" stop-color="rgb(69.581604%, 86.077881%, 15.55481%)" offset="0.132812"/><stop stop-opacity="1" stop-color="rgb(68.373108%, 85.726929%, 15.890503%)" offset="0.136719"/><stop stop-opacity="1" stop-color="rgb(67.166138%, 85.377502%, 16.226196%)" offset="0.140625"/><stop stop-opacity="1" stop-color="rgb(65.957642%, 85.02655%, 16.56189%)" offset="0.144531"/><stop stop-opacity="1" stop-color="rgb(64.750671%, 84.677124%, 16.897583%)" offset="0.148437"/><stop stop-opacity="1" stop-color="rgb(63.542175%, 84.326172%, 17.233276%)" offset="0.152344"/><stop stop-opacity="1" stop-color="rgb(62.335205%, 83.976746%, 17.56897%)" offset="0.15625"/><stop stop-opacity="1" stop-color="rgb(61.126709%, 83.625793%, 17.904663%)" offset="0.160156"/><stop stop-opacity="1" stop-color="rgb(59.919739%, 83.276367%, 18.241882%)" offset="0.164062"/><stop stop-opacity="1" stop-color="rgb(58.712769%, 82.925415%, 18.577576%)" offset="0.167969"/><stop stop-opacity="1" stop-color="rgb(57.505798%, 82.575989%, 18.913269%)" offset="0.171875"/><stop stop-opacity="1" stop-color="rgb(56.297302%, 82.225037%, 19.248962%)" offset="0.175781"/><stop stop-opacity="1" stop-color="rgb(55.090332%, 81.87561%, 19.584656%)" offset="0.179687"/><stop stop-opacity="1" stop-color="rgb(53.881836%, 81.524658%, 19.920349%)" offset="0.183594"/><stop stop-opacity="1" stop-color="rgb(52.674866%, 81.175232%, 20.256042%)" offset="0.1875"/><stop stop-opacity="1" stop-color="rgb(51.46637%, 80.82428%, 20.591736%)" offset="0.191406"/><stop stop-opacity="1" stop-color="rgb(50.259399%, 80.474854%, 20.927429%)" offset="0.195312"/><stop stop-opacity="1" stop-color="rgb(49.050903%, 80.123901%, 21.263123%)" offset="0.199219"/><stop stop-opacity="1" stop-color="rgb(47.843933%, 79.774475%, 21.598816%)" offset="0.203125"/><stop stop-opacity="1" stop-color="rgb(46.635437%, 79.423523%, 21.934509%)" offset="0.207031"/><stop stop-opacity="1" stop-color="rgb(45.428467%, 79.074097%, 22.270203%)" offset="0.210937"/><stop stop-opacity="1" stop-color="rgb(44.221497%, 78.723145%, 22.605896%)" offset="0.214844"/><stop stop-opacity="1" stop-color="rgb(43.014526%, 78.373718%, 22.941589%)" offset="0.21875"/><stop stop-opacity="1" stop-color="rgb(41.80603%, 78.022766%, 23.277283%)" offset="0.222656"/><stop stop-opacity="1" stop-color="rgb(40.59906%, 77.67334%, 23.612976%)" offset="0.226562"/><stop stop-opacity="1" stop-color="rgb(39.390564%, 77.322388%, 23.948669%)" offset="0.230469"/><stop stop-opacity="1" stop-color="rgb(38.183594%, 76.972961%, 24.284363%)" offset="0.234375"/><stop stop-opacity="1" stop-color="rgb(36.975098%, 76.622009%, 24.620056%)" offset="0.238281"/><stop stop-opacity="1" stop-color="rgb(35.768127%, 76.272583%, 24.95575%)" offset="0.242187"/><stop stop-opacity="1" stop-color="rgb(34.559631%, 75.921631%, 25.291443%)" offset="0.246094"/><stop stop-opacity="1" stop-color="rgb(33.352661%, 75.572205%, 25.627136%)" offset="0.25"/><stop stop-opacity="1" stop-color="rgb(32.144165%, 75.221252%, 25.96283%)" offset="0.253906"/><stop stop-opacity="1" stop-color="rgb(30.937195%, 74.871826%, 26.298523%)" offset="0.257812"/><stop stop-opacity="1" stop-color="rgb(29.730225%, 74.520874%, 26.634216%)" offset="0.261719"/><stop stop-opacity="1" stop-color="rgb(28.523254%, 74.171448%, 26.96991%)" offset="0.265625"/><stop stop-opacity="1" stop-color="rgb(27.314758%, 73.820496%, 27.305603%)" offset="0.269531"/><stop stop-opacity="1" stop-color="rgb(26.107788%, 73.471069%, 27.641296%)" offset="0.273437"/><stop stop-opacity="1" stop-color="rgb(24.899292%, 73.120117%, 27.97699%)" offset="0.277344"/><stop stop-opacity="1" stop-color="rgb(23.692322%, 72.770691%, 28.312683%)" offset="0.28125"/><stop stop-opacity="1" stop-color="rgb(22.483826%, 72.419739%, 28.648376%)" offset="0.285156"/><stop stop-opacity="1" stop-color="rgb(21.276855%, 72.070312%, 28.98407%)" offset="0.289062"/><stop stop-opacity="1" stop-color="rgb(20.068359%, 71.71936%, 29.319763%)" offset="0.292969"/><stop stop-opacity="1" stop-color="rgb(18.861389%, 71.369934%, 29.655457%)" offset="0.296875"/><stop stop-opacity="1" stop-color="rgb(17.652893%, 71.018982%, 29.99115%)" offset="0.300781"/><stop stop-opacity="1" stop-color="rgb(16.445923%, 70.669556%, 30.326843%)" offset="0.304687"/><stop stop-opacity="1" stop-color="rgb(15.238953%, 70.318604%, 30.662537%)" offset="0.308594"/><stop stop-opacity="1" stop-color="rgb(14.031982%, 69.969177%, 30.99823%)" offset="0.3125"/><stop stop-opacity="1" stop-color="rgb(12.823486%, 69.618225%, 31.333923%)" offset="0.316406"/><stop stop-opacity="1" stop-color="rgb(11.616516%, 69.268799%, 31.669617%)" offset="0.320312"/><stop stop-opacity="1" stop-color="rgb(10.40802%, 68.917847%, 32.00531%)" offset="0.324219"/><stop stop-opacity="1" stop-color="rgb(9.20105%, 68.56842%, 32.341003%)" offset="0.328125"/><stop stop-opacity="1" stop-color="rgb(7.992554%, 68.217468%, 32.676697%)" offset="0.332031"/><stop stop-opacity="1" stop-color="rgb(6.785583%, 67.868042%, 33.01239%)" offset="0.335937"/><stop stop-opacity="1" stop-color="rgb(5.577087%, 67.51709%, 33.348083%)" offset="0.339844"/><stop stop-opacity="1" stop-color="rgb(4.370117%, 67.167664%, 33.683777%)" offset="0.34375"/><stop stop-opacity="1" stop-color="rgb(3.161621%, 66.816711%, 34.01947%)" offset="0.347656"/><stop stop-opacity="1" stop-color="rgb(1.954651%, 66.465759%, 34.355164%)" offset="0.351562"/><stop stop-opacity="1" stop-color="rgb(0.976562%, 66.189575%, 34.773254%)" offset="0.355469"/><stop stop-opacity="1" stop-color="rgb(0%, 65.913391%, 35.191345%)" offset="0.359375"/><stop stop-opacity="1" stop-color="rgb(0%, 65.948486%, 35.960388%)" offset="0.363281"/><stop stop-opacity="1" stop-color="rgb(0%, 65.983582%, 36.730957%)" offset="0.367187"/><stop stop-opacity="1" stop-color="rgb(0%, 66.018677%, 37.5%)" offset="0.371094"/><stop stop-opacity="1" stop-color="rgb(0%, 66.053772%, 38.270569%)" offset="0.375"/><stop stop-opacity="1" stop-color="rgb(0%, 66.088867%, 39.039612%)" offset="0.378906"/><stop stop-opacity="1" stop-color="rgb(0%, 66.123962%, 39.810181%)" offset="0.382812"/><stop stop-opacity="1" stop-color="rgb(0%, 66.159058%, 40.579224%)" offset="0.386719"/><stop stop-opacity="1" stop-color="rgb(0%, 66.195679%, 41.348267%)" offset="0.390625"/><stop stop-opacity="1" stop-color="rgb(0%, 66.230774%, 42.11731%)" offset="0.394531"/><stop stop-opacity="1" stop-color="rgb(0%, 66.265869%, 42.887878%)" offset="0.398437"/><stop stop-opacity="1" stop-color="rgb(0%, 66.300964%, 43.656921%)" offset="0.402344"/><stop stop-opacity="1" stop-color="rgb(0%, 66.33606%, 44.42749%)" offset="0.40625"/><stop stop-opacity="1" stop-color="rgb(0%, 66.371155%, 45.196533%)" offset="0.410156"/><stop stop-opacity="1" stop-color="rgb(0%, 66.407776%, 45.967102%)" offset="0.414062"/><stop stop-opacity="1" stop-color="rgb(0%, 66.442871%, 46.736145%)" offset="0.417969"/><stop stop-opacity="1" stop-color="rgb(0%, 66.477966%, 47.505188%)" offset="0.421875"/><stop stop-opacity="1" stop-color="rgb(0%, 66.513062%, 48.274231%)" offset="0.425781"/><stop stop-opacity="1" stop-color="rgb(0%, 66.548157%, 49.0448%)" offset="0.429687"/><stop stop-opacity="1" stop-color="rgb(0%, 66.583252%, 49.813843%)" offset="0.433594"/><stop stop-opacity="1" stop-color="rgb(0%, 66.619873%, 50.584412%)" offset="0.4375"/><stop stop-opacity="1" stop-color="rgb(0%, 66.654968%, 51.353455%)" offset="0.441406"/><stop stop-opacity="1" stop-color="rgb(0%, 66.690063%, 52.124023%)" offset="0.445312"/><stop stop-opacity="1" stop-color="rgb(0%, 66.725159%, 52.893066%)" offset="0.449219"/><stop stop-opacity="1" stop-color="rgb(0%, 66.760254%, 53.662109%)" offset="0.453125"/><stop stop-opacity="1" stop-color="rgb(0%, 66.795349%, 54.431152%)" offset="0.457031"/><stop stop-opacity="1" stop-color="rgb(0%, 66.83197%, 55.201721%)" offset="0.460937"/><stop stop-opacity="1" stop-color="rgb(0%, 66.867065%, 55.970764%)" offset="0.464844"/><stop stop-opacity="1" stop-color="rgb(0%, 66.902161%, 56.741333%)" offset="0.46875"/><stop stop-opacity="1" stop-color="rgb(0%, 66.937256%, 57.510376%)" offset="0.472656"/><stop stop-opacity="1" stop-color="rgb(0%, 66.972351%, 58.280945%)" offset="0.476562"/><stop stop-opacity="1" stop-color="rgb(0%, 67.007446%, 59.049988%)" offset="0.480469"/><stop stop-opacity="1" stop-color="rgb(0%, 67.044067%, 59.819031%)" offset="0.484375"/><stop stop-opacity="1" stop-color="rgb(0%, 67.079163%, 60.588074%)" offset="0.488281"/><stop stop-opacity="1" stop-color="rgb(0%, 67.114258%, 61.358643%)" offset="0.492188"/><stop stop-opacity="1" stop-color="rgb(0%, 67.149353%, 62.127686%)" offset="0.496094"/><stop stop-opacity="1" stop-color="rgb(0%, 67.184448%, 62.898254%)" offset="0.5"/><stop stop-opacity="1" stop-color="rgb(0%, 67.219543%, 63.667297%)" offset="0.503906"/><stop stop-opacity="1" stop-color="rgb(0%, 67.256165%, 64.43634%)" offset="0.507812"/><stop stop-opacity="1" stop-color="rgb(0%, 67.29126%, 65.205383%)" offset="0.511719"/><stop stop-opacity="1" stop-color="rgb(0%, 67.326355%, 65.975952%)" offset="0.515625"/><stop stop-opacity="1" stop-color="rgb(0%, 67.36145%, 66.744995%)" offset="0.519531"/><stop stop-opacity="1" stop-color="rgb(0%, 67.396545%, 67.515564%)" offset="0.523438"/><stop stop-opacity="1" stop-color="rgb(0%, 67.431641%, 68.284607%)" offset="0.527344"/><stop stop-opacity="1" stop-color="rgb(0%, 67.468262%, 69.055176%)" offset="0.53125"/><stop stop-opacity="1" stop-color="rgb(0%, 67.503357%, 69.824219%)" offset="0.535156"/><stop stop-opacity="1" stop-color="rgb(0%, 67.538452%, 70.593262%)" offset="0.539062"/><stop stop-opacity="1" stop-color="rgb(0%, 67.573547%, 71.362305%)" offset="0.542969"/><stop stop-opacity="1" stop-color="rgb(0%, 67.608643%, 72.132874%)" offset="0.546875"/><stop stop-opacity="1" stop-color="rgb(0%, 67.643738%, 72.901917%)" offset="0.550781"/><stop stop-opacity="1" stop-color="rgb(0%, 67.680359%, 73.672485%)" offset="0.554688"/><stop stop-opacity="1" stop-color="rgb(0%, 67.715454%, 74.441528%)" offset="0.558594"/><stop stop-opacity="1" stop-color="rgb(0%, 67.750549%, 75.212097%)" offset="0.5625"/><stop stop-opacity="1" stop-color="rgb(0%, 67.785645%, 75.98114%)" offset="0.566406"/><stop stop-opacity="1" stop-color="rgb(0%, 67.82074%, 76.750183%)" offset="0.570312"/><stop stop-opacity="1" stop-color="rgb(0%, 67.855835%, 77.519226%)" offset="0.574219"/><stop stop-opacity="1" stop-color="rgb(0%, 67.89093%, 78.289795%)" offset="0.578125"/><stop stop-opacity="1" stop-color="rgb(0%, 67.926025%, 79.058838%)" offset="0.582031"/><stop stop-opacity="1" stop-color="rgb(0%, 67.962646%, 79.829407%)" offset="0.585938"/><stop stop-opacity="1" stop-color="rgb(0%, 67.997742%, 80.59845%)" offset="0.589844"/><stop stop-opacity="1" stop-color="rgb(0%, 68.032837%, 81.369019%)" offset="0.59375"/><stop stop-opacity="1" stop-color="rgb(0%, 68.067932%, 82.138062%)" offset="0.597656"/><stop stop-opacity="1" stop-color="rgb(0%, 68.103027%, 82.907104%)" offset="0.601562"/><stop stop-opacity="1" stop-color="rgb(0%, 68.138123%, 83.676147%)" offset="0.605469"/><stop stop-opacity="1" stop-color="rgb(0%, 68.174744%, 84.446716%)" offset="0.609375"/><stop stop-opacity="1" stop-color="rgb(0%, 68.209839%, 85.215759%)" offset="0.613281"/><stop stop-opacity="1" stop-color="rgb(0%, 68.244934%, 85.986328%)" offset="0.617188"/><stop stop-opacity="1" stop-color="rgb(0%, 68.280029%, 86.755371%)" offset="0.621094"/><stop stop-opacity="1" stop-color="rgb(0%, 68.315125%, 87.52594%)" offset="0.625"/><stop stop-opacity="1" stop-color="rgb(0%, 68.35022%, 88.294983%)" offset="0.628906"/><stop stop-opacity="1" stop-color="rgb(0%, 68.386841%, 89.064026%)" offset="0.632812"/><stop stop-opacity="1" stop-color="rgb(0%, 68.421936%, 89.833069%)" offset="0.636719"/><stop stop-opacity="1" stop-color="rgb(0%, 68.457031%, 90.603638%)" offset="0.640625"/><stop stop-opacity="1" stop-color="rgb(0%, 68.492126%, 91.372681%)" offset="0.644531"/><stop stop-opacity="1" stop-color="rgb(0%, 68.527222%, 92.14325%)" offset="0.648438"/><stop stop-opacity="1" stop-color="rgb(0%, 68.562317%, 92.912292%)" offset="0.652344"/><stop stop-opacity="1" stop-color="rgb(0%, 68.598938%, 93.682861%)" offset="0.65625"/><stop stop-opacity="1" stop-color="rgb(1.171875%, 67.918396%, 93.214417%)" offset="0.660156"/><stop stop-opacity="1" stop-color="rgb(2.34375%, 67.237854%, 92.745972%)" offset="0.664062"/><stop stop-opacity="1" stop-color="rgb(3.527832%, 66.549683%, 92.263794%)" offset="0.667969"/><stop stop-opacity="1" stop-color="rgb(4.71344%, 65.863037%, 91.783142%)" offset="0.671875"/><stop stop-opacity="1" stop-color="rgb(5.897522%, 65.174866%, 91.300964%)" offset="0.675781"/><stop stop-opacity="1" stop-color="rgb(7.08313%, 64.486694%, 90.820312%)" offset="0.679688"/><stop stop-opacity="1" stop-color="rgb(8.267212%, 63.798523%, 90.338135%)" offset="0.683594"/><stop stop-opacity="1" stop-color="rgb(9.45282%, 63.110352%, 89.855957%)" offset="0.6875"/><stop stop-opacity="1" stop-color="rgb(10.636902%, 62.42218%, 89.373779%)" offset="0.691406"/><stop stop-opacity="1" stop-color="rgb(11.82251%, 61.735535%, 88.893127%)" offset="0.695312"/><stop stop-opacity="1" stop-color="rgb(13.006592%, 61.047363%, 88.41095%)" offset="0.699219"/><stop stop-opacity="1" stop-color="rgb(14.1922%, 60.359192%, 87.930298%)" offset="0.703125"/><stop stop-opacity="1" stop-color="rgb(15.376282%, 59.671021%, 87.44812%)" offset="0.707031"/><stop stop-opacity="1" stop-color="rgb(16.56189%, 58.982849%, 86.965942%)" offset="0.710938"/><stop stop-opacity="1" stop-color="rgb(17.747498%, 58.294678%, 86.483765%)" offset="0.714844"/><stop stop-opacity="1" stop-color="rgb(18.933105%, 57.608032%, 86.003113%)" offset="0.71875"/><stop stop-opacity="1" stop-color="rgb(20.117188%, 56.919861%, 85.520935%)" offset="0.722656"/><stop stop-opacity="1" stop-color="rgb(21.302795%, 56.231689%, 85.040283%)" offset="0.726562"/><stop stop-opacity="1" stop-color="rgb(22.486877%, 55.543518%, 84.558105%)" offset="0.730469"/><stop stop-opacity="1" stop-color="rgb(23.672485%, 54.856873%, 84.075928%)" offset="0.734375"/><stop stop-opacity="1" stop-color="rgb(24.856567%, 54.168701%, 83.59375%)" offset="0.738281"/><stop stop-opacity="1" stop-color="rgb(26.042175%, 53.48053%, 83.113098%)" offset="0.742188"/><stop stop-opacity="1" stop-color="rgb(27.226257%, 52.792358%, 82.63092%)" offset="0.746094"/><stop stop-opacity="1" stop-color="rgb(28.411865%, 52.104187%, 82.150269%)" offset="0.75"/><stop stop-opacity="1" stop-color="rgb(29.595947%, 51.416016%, 81.668091%)" offset="0.753906"/><stop stop-opacity="1" stop-color="rgb(30.781555%, 50.72937%, 81.185913%)" offset="0.757812"/><stop stop-opacity="1" stop-color="rgb(31.965637%, 50.041199%, 80.703735%)" offset="0.761719"/><stop stop-opacity="1" stop-color="rgb(33.151245%, 49.353027%, 80.223083%)" offset="0.765625"/><stop stop-opacity="1" stop-color="rgb(34.335327%, 48.664856%, 79.740906%)" offset="0.769531"/><stop stop-opacity="1" stop-color="rgb(35.520935%, 47.976685%, 79.260254%)" offset="0.773438"/><stop stop-opacity="1" stop-color="rgb(36.706543%, 47.288513%, 78.778076%)" offset="0.777344"/><stop stop-opacity="1" stop-color="rgb(37.892151%, 46.601868%, 78.295898%)" offset="0.78125"/><stop stop-opacity="1" stop-color="rgb(39.076233%, 45.913696%, 77.813721%)" offset="0.785156"/><stop stop-opacity="1" stop-color="rgb(40.261841%, 45.225525%, 77.333069%)" offset="0.789062"/><stop stop-opacity="1" stop-color="rgb(41.445923%, 44.537354%, 76.850891%)" offset="0.792969"/><stop stop-opacity="1" stop-color="rgb(42.631531%, 43.849182%, 76.370239%)" offset="0.796875"/><stop stop-opacity="1" stop-color="rgb(43.815613%, 43.161011%, 75.888062%)" offset="0.800781"/><stop stop-opacity="1" stop-color="rgb(45.001221%, 42.474365%, 75.405884%)" offset="0.804688"/><stop stop-opacity="1" stop-color="rgb(46.185303%, 41.786194%, 74.923706%)" offset="0.808594"/><stop stop-opacity="1" stop-color="rgb(47.370911%, 41.098022%, 74.443054%)" offset="0.8125"/><stop stop-opacity="1" stop-color="rgb(48.554993%, 40.409851%, 73.960876%)" offset="0.816406"/><stop stop-opacity="1" stop-color="rgb(49.740601%, 39.72168%, 73.480225%)" offset="0.820312"/><stop stop-opacity="1" stop-color="rgb(50.924683%, 39.033508%, 72.998047%)" offset="0.824219"/><stop stop-opacity="1" stop-color="rgb(52.110291%, 38.346863%, 72.517395%)" offset="0.828125"/><stop stop-opacity="1" stop-color="rgb(53.294373%, 37.658691%, 72.035217%)" offset="0.832031"/><stop stop-opacity="1" stop-color="rgb(54.47998%, 36.97052%, 71.55304%)" offset="0.835938"/><stop stop-opacity="1" stop-color="rgb(55.665588%, 36.282349%, 71.070862%)" offset="0.839844"/><stop stop-opacity="1" stop-color="rgb(56.851196%, 35.594177%, 70.59021%)" offset="0.84375"/><stop stop-opacity="1" stop-color="rgb(58.035278%, 34.906006%, 70.108032%)" offset="0.847656"/><stop stop-opacity="1" stop-color="rgb(59.220886%, 34.21936%, 69.62738%)" offset="0.851562"/><stop stop-opacity="1" stop-color="rgb(60.404968%, 33.531189%, 69.145203%)" offset="0.855469"/><stop stop-opacity="1" stop-color="rgb(61.590576%, 32.843018%, 68.663025%)" offset="0.859375"/><stop stop-opacity="1" stop-color="rgb(62.774658%, 32.154846%, 68.180847%)" offset="0.863281"/><stop stop-opacity="1" stop-color="rgb(63.960266%, 31.466675%, 67.700195%)" offset="0.867188"/><stop stop-opacity="1" stop-color="rgb(65.144348%, 30.778503%, 67.218018%)" offset="0.871094"/><stop stop-opacity="1" stop-color="rgb(66.329956%, 30.091858%, 66.737366%)" offset="0.875"/><stop stop-opacity="1" stop-color="rgb(67.514038%, 29.403687%, 66.255188%)" offset="0.878906"/><stop stop-opacity="1" stop-color="rgb(68.699646%, 28.715515%, 65.77301%)" offset="0.882812"/><stop stop-opacity="1" stop-color="rgb(69.883728%, 28.027344%, 65.290833%)" offset="0.886719"/><stop stop-opacity="1" stop-color="rgb(71.069336%, 27.339172%, 64.810181%)" offset="0.890625"/><stop stop-opacity="1" stop-color="rgb(72.253418%, 26.651001%, 64.328003%)" offset="0.894531"/><stop stop-opacity="1" stop-color="rgb(73.439026%, 25.964355%, 63.847351%)" offset="0.898438"/><stop stop-opacity="1" stop-color="rgb(74.624634%, 25.276184%, 63.365173%)" offset="0.902344"/><stop stop-opacity="1" stop-color="rgb(75.810242%, 24.588013%, 62.882996%)" offset="0.90625"/><stop stop-opacity="1" stop-color="rgb(76.994324%, 23.899841%, 62.400818%)" offset="0.910156"/><stop stop-opacity="1" stop-color="rgb(78.179932%, 23.213196%, 61.920166%)" offset="0.914062"/><stop stop-opacity="1" stop-color="rgb(79.364014%, 22.525024%, 61.437988%)" offset="0.917969"/><stop stop-opacity="1" stop-color="rgb(80.549622%, 21.836853%, 60.957336%)" offset="0.921875"/><stop stop-opacity="1" stop-color="rgb(81.733704%, 21.148682%, 60.475159%)" offset="0.925781"/><stop stop-opacity="1" stop-color="rgb(82.919312%, 20.46051%, 59.992981%)" offset="0.929687"/><stop stop-opacity="1" stop-color="rgb(84.103394%, 19.772339%, 59.510803%)" offset="0.933594"/><stop stop-opacity="1" stop-color="rgb(85.289001%, 19.085693%, 59.030151%)" offset="0.9375"/><stop stop-opacity="1" stop-color="rgb(86.473083%, 18.397522%, 58.547974%)" offset="0.941406"/><stop stop-opacity="1" stop-color="rgb(87.658691%, 17.709351%, 58.067322%)" offset="0.945312"/><stop stop-opacity="1" stop-color="rgb(88.842773%, 17.021179%, 57.585144%)" offset="0.949219"/><stop stop-opacity="1" stop-color="rgb(90.028381%, 16.333008%, 57.102966%)" offset="0.953125"/><stop stop-opacity="1" stop-color="rgb(91.212463%, 15.644836%, 56.620789%)" offset="0.957031"/><stop stop-opacity="1" stop-color="rgb(92.398071%, 14.958191%, 56.140137%)" offset="0.960938"/><stop stop-opacity="1" stop-color="rgb(92.448425%, 14.927673%, 56.118774%)" offset="0.96875"/><stop stop-opacity="1" stop-color="rgb(92.498779%, 14.898682%, 56.098938%)" offset="1"/></linearGradient></defs><g clip-path="url(#06154e1f94)"><g clip-path="url(#cbcbf2aaae)"><path fill="url(#837abd37ad)" d="M 63.09375 12.929688 L 63.09375 230.414062 L 206.347656 230.414062 L 206.347656 12.929688 Z M 63.09375 12.929688 " fill-rule="nonzero"/></g></g><g fill="#00afef" fill-opacity="1"><g transform="translate(30.893899, 297.349544)"><g><path d="M 16.894531 0.578125 C 27.273438 0.578125 32.636719 -3.574219 32.636719 -11.53125 C 32.636719 -25.371094 13.378906 -19.375 13.378906 -28.714844 C 13.378906 -31.484375 14.472656 -33.328125 17.816406 -33.328125 C 20.585938 -33.328125 22.199219 -32.523438 22.71875 -30.101562 C 23.410156 -26.871094 24.335938 -25.140625 27.273438 -25.140625 C 30.214844 -25.140625 32.234375 -26.757812 32.003906 -29.925781 C 31.484375 -36.730469 26.988281 -40.539062 17.992188 -40.539062 C 8.707031 -40.539062 3.402344 -37.136719 3.402344 -28.484375 C 3.402344 -14.359375 21.796875 -18.855469 21.796875 -10.839844 C 21.796875 -8.476562 20.355469 -7.324219 17.242188 -7.324219 C 15.394531 -7.324219 14.070312 -7.667969 13.203125 -8.476562 C 11.246094 -10.609375 10.726562 -12.28125 7.957031 -12.28125 L 7.4375 -12.28125 C 4.496094 -12.28125 2.304688 -10.4375 3.171875 -7.265625 C 4.613281 -2.132812 9.226562 0.578125 16.894531 0.578125 Z M 16.894531 0.578125 "/></g></g></g><g fill="#00afef" fill-opacity="1"><g transform="translate(73.444197, 297.349544)"><g><path d="M 31.773438 -4.960938 C 31.714844 -10.148438 31.601562 -14.992188 31.714844 -19.027344 C 31.945312 -28.542969 28.890625 -32.40625 22.835938 -32.40625 C 18.394531 -32.40625 14.992188 -30.503906 12.800781 -26.46875 L 12.742188 -26.582031 C 13.148438 -28.945312 13.148438 -31.367188 13.148438 -34.023438 C 13.148438 -34.945312 13.148438 -36.328125 13.148438 -37.828125 C 13.148438 -40.363281 11.476562 -41.75 8.304688 -41.75 L 7.898438 -41.75 C 4.726562 -41.75 3 -40.019531 3 -36.847656 C 3.054688 -31.601562 3.171875 -26.699219 3.171875 -21.507812 C 3.171875 -15.800781 3.054688 -10.4375 3 -4.902344 C 3 -1.730469 4.726562 0 7.898438 0 L 8.304688 0 C 11.476562 0 13.203125 -1.730469 13.203125 -4.902344 C 13.148438 -10.148438 13.03125 -15.28125 13.148438 -20.644531 C 14.070312 -22.777344 15.742188 -24.046875 17.992188 -24.101562 C 20.585938 -24.160156 21.914062 -22.890625 21.914062 -19.144531 C 21.914062 -15.164062 21.855469 -10.265625 21.796875 -4.960938 C 21.796875 -1.730469 23.527344 0 26.699219 0 L 26.871094 0 C 30.042969 0 31.773438 -1.730469 31.773438 -4.960938 Z M 31.773438 -4.960938 "/></g></g></g><g fill="#00afef" fill-opacity="1"><g transform="translate(116.225115, 297.349544)"><g><path d="M 16.894531 0.691406 C 26.699219 0.691406 31.484375 -4.785156 31.484375 -15.859375 C 31.484375 -26.871094 26.699219 -32.40625 16.894531 -32.40625 C 6.976562 -32.40625 2.074219 -26.871094 2.074219 -15.859375 C 2.074219 -4.785156 6.976562 0.691406 16.894531 0.691406 Z M 16.894531 -6.34375 C 13.953125 -6.34375 11.9375 -8.1875 11.9375 -15.859375 C 11.9375 -22.890625 13.261719 -25.371094 16.894531 -25.371094 C 20.238281 -25.371094 21.625 -22.890625 21.625 -15.859375 C 21.625 -8.1875 19.605469 -6.34375 16.894531 -6.34375 Z M 16.894531 -6.34375 "/></g></g></g><g fill="#00afef" fill-opacity="1"><g transform="translate(157.449378, 297.349544)"><g><path d="M 21.679688 -32.347656 C 21.335938 -32.40625 20.875 -32.464844 20.238281 -32.464844 C 16.433594 -32.464844 13.78125 -29.121094 12.859375 -24.390625 L 12.6875 -24.507812 L 12.6875 -28.253906 C 12.6875 -30.675781 11.015625 -31.945312 8.015625 -31.945312 C 5.015625 -31.945312 3.34375 -30.214844 3.34375 -27.042969 C 3.402344 -23.355469 3.460938 -19.777344 3.460938 -15.972656 C 3.460938 -12.167969 3.402344 -8.59375 3.34375 -4.902344 C 3.34375 -1.730469 5.074219 0 8.246094 0 L 8.417969 0 C 11.648438 0 13.320312 -1.789062 13.203125 -5.015625 C 13.148438 -7.4375 13.089844 -9.804688 13.089844 -12.167969 C 13.089844 -13.378906 13.148438 -14.703125 13.148438 -15.972656 L 13.148438 -17.355469 C 14.183594 -20.46875 15.972656 -22.144531 18.511719 -22.144531 C 19.375 -22.144531 20.066406 -22.027344 20.816406 -21.796875 C 22.257812 -21.277344 24.046875 -22.085938 24.796875 -25.082031 C 25.140625 -26.410156 25.199219 -27.792969 24.796875 -29.121094 C 24.046875 -31.367188 22.71875 -32.117188 21.679688 -32.347656 Z M 21.679688 -32.347656 "/></g></g></g><g fill="#00afef" fill-opacity="1"><g transform="translate(190.256248, 297.349544)"><g><path d="M 18.28125 -6.976562 C 15.511719 -6.917969 14.300781 -8.476562 14.300781 -11.820312 C 14.300781 -14.820312 14.242188 -18.222656 14.359375 -21.507812 C 14.359375 -22.546875 14.414062 -23.527344 14.414062 -24.566406 L 18.914062 -24.621094 C 21.796875 -24.621094 23.355469 -25.890625 23.355469 -28.253906 C 23.355469 -30.621094 21.625 -31.886719 18.453125 -31.886719 L 14.414062 -31.886719 L 14.414062 -36.960938 C 14.414062 -40.019531 12.28125 -41.34375 9.054688 -40.308594 C 6.34375 -39.441406 5.015625 -37.65625 5.015625 -34.769531 C 5.015625 -33.789062 5.074219 -32.867188 5.074219 -31.886719 L 2.652344 -31.886719 C 1.09375 -31.886719 0.171875 -30.5625 0.171875 -28.199219 C 0.171875 -25.832031 1.902344 -24.507812 5.074219 -24.507812 L 5.132812 -24.507812 L 5.132812 -21.507812 C 5.132812 -17.816406 5.132812 -14.070312 5.074219 -10.667969 C 4.902344 -2.304688 9.515625 0.691406 16.664062 0.691406 C 17.992188 0.691406 19.316406 0.578125 20.46875 0.347656 C 23.007812 -0.171875 23.988281 -2.074219 23.757812 -4.554688 C 23.527344 -6.917969 21.625 -7.09375 18.28125 -6.976562 Z M 18.28125 -6.976562 "/></g></g></g><g fill="#00afef" fill-opacity="1"><g transform="translate(222.717187, 297.349544)"><g><path d="M 8.1875 -35.925781 C 12.457031 -35.925781 14.183594 -37.367188 14.183594 -40.824219 C 14.183594 -44.285156 12.457031 -45.726562 8.1875 -45.726562 C 3.921875 -45.726562 2.191406 -44.285156 2.191406 -40.824219 C 2.191406 -37.367188 3.921875 -35.925781 8.1875 -35.925781 Z M 8.359375 0 C 11.53125 0 13.203125 -1.730469 13.148438 -4.902344 C 13.148438 -8.1875 13.089844 -11.417969 13.148438 -14.761719 C 13.203125 -18.28125 13.203125 -22.949219 13.203125 -26.988281 C 13.203125 -30.15625 11.476562 -31.886719 8.304688 -31.886719 L 8.246094 -31.886719 C 5.074219 -31.886719 3.34375 -30.15625 3.34375 -27.042969 C 3.402344 -23.410156 3.402344 -18.335938 3.460938 -9.804688 L 3.460938 -4.902344 C 3.460938 -1.730469 5.191406 0 8.359375 0 Z M 8.359375 0 "/></g></g></g><g fill="#ec268f" fill-opacity="1"><g transform="translate(13.257635, 342.789082)"><g><path d="M 6.453125 0.15625 C 5.398438 0.15625 4.472656 -0.046875 3.671875 -0.453125 C 2.878906 -0.859375 2.257812 -1.429688 1.8125 -2.171875 C 1.363281 -2.921875 1.140625 -3.78125 1.140625 -4.75 L 1.140625 -14 C 1.140625 -14.226562 1.257812 -14.34375 1.5 -14.34375 L 3.6875 -14.34375 C 3.914062 -14.34375 4.03125 -14.226562 4.03125 -14 L 4.03125 -4.734375 C 4.03125 -4.015625 4.253906 -3.429688 4.703125 -2.984375 C 5.148438 -2.535156 5.734375 -2.3125 6.453125 -2.3125 C 7.179688 -2.3125 7.765625 -2.535156 8.203125 -2.984375 C 8.648438 -3.429688 8.875 -4.015625 8.875 -4.734375 L 8.875 -14 C 8.875 -14.226562 8.988281 -14.34375 9.21875 -14.34375 L 11.421875 -14.34375 C 11.648438 -14.34375 11.765625 -14.226562 11.765625 -14 L 11.765625 -4.75 C 11.765625 -3.78125 11.539062 -2.921875 11.09375 -2.171875 C 10.65625 -1.429688 10.035156 -0.859375 9.234375 -0.453125 C 8.429688 -0.046875 7.503906 0.15625 6.453125 0.15625 Z M 6.453125 0.15625 "/></g></g></g><g fill="#ec268f" fill-opacity="1"><g transform="translate(33.637641, 342.789082)"><g><path d="M 9.203125 0 C 9.023438 0 8.890625 -0.0859375 8.796875 -0.265625 L 6.265625 -5.84375 C 6.242188 -5.90625 6.195312 -5.9375 6.125 -5.9375 L 4.265625 -5.9375 C 4.179688 -5.9375 4.140625 -5.898438 4.140625 -5.828125 L 4.140625 -0.34375 C 4.140625 -0.113281 4.023438 0 3.796875 0 L 1.59375 0 C 1.363281 0 1.25 -0.113281 1.25 -0.34375 L 1.25 -14.015625 C 1.25 -14.253906 1.363281 -14.375 1.59375 -14.375 L 7.359375 -14.375 C 8.234375 -14.375 9 -14.191406 9.65625 -13.828125 C 10.320312 -13.460938 10.835938 -12.953125 11.203125 -12.296875 C 11.566406 -11.640625 11.75 -10.890625 11.75 -10.046875 C 11.75 -9.117188 11.515625 -8.316406 11.046875 -7.640625 C 10.585938 -6.972656 9.945312 -6.503906 9.125 -6.234375 C 9.082031 -6.222656 9.050781 -6.195312 9.03125 -6.15625 C 9.019531 -6.125 9.03125 -6.09375 9.0625 -6.0625 L 11.765625 -0.40625 C 11.804688 -0.351562 11.828125 -0.289062 11.828125 -0.21875 C 11.828125 -0.15625 11.800781 -0.101562 11.75 -0.0625 C 11.695312 -0.0195312 11.617188 0 11.515625 0 Z M 4.265625 -11.875 C 4.179688 -11.875 4.140625 -11.832031 4.140625 -11.75 L 4.140625 -8.296875 C 4.140625 -8.210938 4.179688 -8.171875 4.265625 -8.171875 L 6.921875 -8.171875 C 7.503906 -8.171875 7.972656 -8.335938 8.328125 -8.671875 C 8.691406 -9.015625 8.875 -9.457031 8.875 -10 C 8.875 -10.550781 8.691406 -11 8.328125 -11.34375 C 7.972656 -11.695312 7.503906 -11.875 6.921875 -11.875 Z M 4.265625 -11.875 "/></g></g></g><g fill="#ec268f" fill-opacity="1"><g transform="translate(53.710153, 342.789082)"><g><path d="M 1.59375 0 C 1.363281 0 1.25 -0.113281 1.25 -0.34375 L 1.25 -14 C 1.25 -14.226562 1.363281 -14.34375 1.59375 -14.34375 L 3.796875 -14.34375 C 4.023438 -14.34375 4.140625 -14.226562 4.140625 -14 L 4.140625 -2.609375 C 4.140625 -2.523438 4.179688 -2.484375 4.265625 -2.484375 L 10.84375 -2.484375 C 11.070312 -2.484375 11.1875 -2.363281 11.1875 -2.125 L 11.1875 -0.34375 C 11.1875 -0.113281 11.070312 0 10.84375 0 Z M 1.59375 0 "/></g></g></g><g fill="#ec268f" fill-opacity="1"><g transform="translate(72.921688, 342.789082)"><g/></g></g><g fill="#ec268f" fill-opacity="1"><g transform="translate(84.507375, 342.789082)"><g><path d="M 6.109375 0.15625 C 5.046875 0.15625 4.109375 -0.0195312 3.296875 -0.375 C 2.492188 -0.726562 1.875 -1.222656 1.4375 -1.859375 C 1 -2.503906 0.78125 -3.257812 0.78125 -4.125 L 0.78125 -4.46875 C 0.78125 -4.695312 0.894531 -4.8125 1.125 -4.8125 L 3.28125 -4.8125 C 3.507812 -4.8125 3.625 -4.722656 3.625 -4.546875 L 3.625 -4.265625 C 3.625 -3.710938 3.875 -3.25 4.375 -2.875 C 4.875 -2.5 5.523438 -2.3125 6.328125 -2.3125 C 7.054688 -2.3125 7.59375 -2.460938 7.9375 -2.765625 C 8.289062 -3.078125 8.46875 -3.460938 8.46875 -3.921875 C 8.46875 -4.242188 8.359375 -4.515625 8.140625 -4.734375 C 7.921875 -4.960938 7.625 -5.160156 7.25 -5.328125 C 6.882812 -5.503906 6.289062 -5.742188 5.46875 -6.046875 C 4.539062 -6.359375 3.757812 -6.675781 3.125 -7 C 2.5 -7.332031 1.96875 -7.78125 1.53125 -8.34375 C 1.09375 -8.914062 0.875 -9.617188 0.875 -10.453125 C 0.875 -11.273438 1.085938 -11.992188 1.515625 -12.609375 C 1.941406 -13.222656 2.53125 -13.691406 3.28125 -14.015625 C 4.039062 -14.347656 4.910156 -14.515625 5.890625 -14.515625 C 6.921875 -14.515625 7.847656 -14.328125 8.671875 -13.953125 C 9.492188 -13.585938 10.132812 -13.070312 10.59375 -12.40625 C 11.050781 -11.75 11.28125 -10.984375 11.28125 -10.109375 L 11.28125 -9.90625 C 11.28125 -9.664062 11.160156 -9.546875 10.921875 -9.546875 L 8.78125 -9.546875 C 8.539062 -9.546875 8.421875 -9.617188 8.421875 -9.765625 L 8.421875 -9.96875 C 8.421875 -10.539062 8.1875 -11.023438 7.71875 -11.421875 C 7.25 -11.828125 6.601562 -12.03125 5.78125 -12.03125 C 5.125 -12.03125 4.617188 -11.894531 4.265625 -11.625 C 3.910156 -11.351562 3.734375 -10.976562 3.734375 -10.5 C 3.734375 -10.15625 3.832031 -9.863281 4.03125 -9.625 C 4.238281 -9.394531 4.550781 -9.1875 4.96875 -9 C 5.382812 -8.8125 6.03125 -8.566406 6.90625 -8.265625 C 7.863281 -7.910156 8.625 -7.597656 9.1875 -7.328125 C 9.75 -7.054688 10.25 -6.644531 10.6875 -6.09375 C 11.132812 -5.550781 11.359375 -4.851562 11.359375 -4 C 11.359375 -3.164062 11.140625 -2.429688 10.703125 -1.796875 C 10.273438 -1.171875 9.664062 -0.6875 8.875 -0.34375 C 8.09375 -0.0078125 7.171875 0.15625 6.109375 0.15625 Z M 6.109375 0.15625 "/></g></g></g><g fill="#ec268f" fill-opacity="1"><g transform="translate(104.128903, 342.789082)"><g><path d="M 8.875 -14 C 8.875 -14.226562 8.988281 -14.34375 9.21875 -14.34375 L 11.421875 -14.34375 C 11.648438 -14.34375 11.765625 -14.226562 11.765625 -14 L 11.765625 -0.34375 C 11.765625 -0.113281 11.648438 0 11.421875 0 L 9.21875 0 C 8.988281 0 8.875 -0.113281 8.875 -0.34375 L 8.875 -5.890625 C 8.875 -5.960938 8.832031 -6 8.75 -6 L 4.265625 -6 C 4.179688 -6 4.140625 -5.960938 4.140625 -5.890625 L 4.140625 -0.34375 C 4.140625 -0.113281 4.023438 0 3.796875 0 L 1.59375 0 C 1.363281 0 1.25 -0.113281 1.25 -0.34375 L 1.25 -14 C 1.25 -14.226562 1.363281 -14.34375 1.59375 -14.34375 L 3.796875 -14.34375 C 4.023438 -14.34375 4.140625 -14.226562 4.140625 -14 L 4.140625 -8.609375 C 4.140625 -8.523438 4.179688 -8.484375 4.265625 -8.484375 L 8.75 -8.484375 C 8.832031 -8.484375 8.875 -8.523438 8.875 -8.609375 Z M 8.875 -14 "/></g></g></g><g fill="#ec268f" fill-opacity="1"><g transform="translate(124.488407, 342.789082)"><g><path d="M 6.359375 0.21875 C 5.285156 0.21875 4.34375 0 3.53125 -0.4375 C 2.71875 -0.875 2.085938 -1.484375 1.640625 -2.265625 C 1.191406 -3.046875 0.96875 -3.953125 0.96875 -4.984375 L 0.96875 -9.375 C 0.96875 -10.382812 1.191406 -11.273438 1.640625 -12.046875 C 2.085938 -12.828125 2.71875 -13.429688 3.53125 -13.859375 C 4.34375 -14.296875 5.285156 -14.515625 6.359375 -14.515625 C 7.429688 -14.515625 8.375 -14.296875 9.1875 -13.859375 C 10 -13.429688 10.628906 -12.828125 11.078125 -12.046875 C 11.535156 -11.273438 11.765625 -10.382812 11.765625 -9.375 L 11.765625 -4.984375 C 11.765625 -3.953125 11.535156 -3.039062 11.078125 -2.25 C 10.628906 -1.457031 10 -0.847656 9.1875 -0.421875 C 8.375 0.00390625 7.429688 0.21875 6.359375 0.21875 Z M 6.359375 -2.25 C 7.109375 -2.25 7.710938 -2.488281 8.171875 -2.96875 C 8.640625 -3.445312 8.875 -4.082031 8.875 -4.875 L 8.875 -9.390625 C 8.875 -10.179688 8.644531 -10.816406 8.1875 -11.296875 C 7.726562 -11.785156 7.117188 -12.03125 6.359375 -12.03125 C 5.609375 -12.03125 5.003906 -11.785156 4.546875 -11.296875 C 4.085938 -10.816406 3.859375 -10.179688 3.859375 -9.390625 L 3.859375 -4.875 C 3.859375 -4.082031 4.085938 -3.445312 4.546875 -2.96875 C 5.003906 -2.488281 5.609375 -2.25 6.359375 -2.25 Z M 6.359375 -2.25 "/></g></g></g><g fill="#ec268f" fill-opacity="1"><g transform="translate(144.704414, 342.789082)"><g><path d="M 9.203125 0 C 9.023438 0 8.890625 -0.0859375 8.796875 -0.265625 L 6.265625 -5.84375 C 6.242188 -5.90625 6.195312 -5.9375 6.125 -5.9375 L 4.265625 -5.9375 C 4.179688 -5.9375 4.140625 -5.898438 4.140625 -5.828125 L 4.140625 -0.34375 C 4.140625 -0.113281 4.023438 0 3.796875 0 L 1.59375 0 C 1.363281 0 1.25 -0.113281 1.25 -0.34375 L 1.25 -14.015625 C 1.25 -14.253906 1.363281 -14.375 1.59375 -14.375 L 7.359375 -14.375 C 8.234375 -14.375 9 -14.191406 9.65625 -13.828125 C 10.320312 -13.460938 10.835938 -12.953125 11.203125 -12.296875 C 11.566406 -11.640625 11.75 -10.890625 11.75 -10.046875 C 11.75 -9.117188 11.515625 -8.316406 11.046875 -7.640625 C 10.585938 -6.972656 9.945312 -6.503906 9.125 -6.234375 C 9.082031 -6.222656 9.050781 -6.195312 9.03125 -6.15625 C 9.019531 -6.125 9.03125 -6.09375 9.0625 -6.0625 L 11.765625 -0.40625 C 11.804688 -0.351562 11.828125 -0.289062 11.828125 -0.21875 C 11.828125 -0.15625 11.800781 -0.101562 11.75 -0.0625 C 11.695312 -0.0195312 11.617188 0 11.515625 0 Z M 4.265625 -11.875 C 4.179688 -11.875 4.140625 -11.832031 4.140625 -11.75 L 4.140625 -8.296875 C 4.140625 -8.210938 4.179688 -8.171875 4.265625 -8.171875 L 6.921875 -8.171875 C 7.503906 -8.171875 7.972656 -8.335938 8.328125 -8.671875 C 8.691406 -9.015625 8.875 -9.457031 8.875 -10 C 8.875 -10.550781 8.691406 -11 8.328125 -11.34375 C 7.972656 -11.695312 7.503906 -11.875 6.921875 -11.875 Z M 4.265625 -11.875 "/></g></g></g><g fill="#ec268f" fill-opacity="1"><g transform="translate(164.776919, 342.789082)"><g><path d="M 11.046875 -14.34375 C 11.273438 -14.34375 11.390625 -14.226562 11.390625 -14 L 11.390625 -12.203125 C 11.390625 -11.960938 11.273438 -11.84375 11.046875 -11.84375 L 7.5 -11.84375 C 7.414062 -11.84375 7.375 -11.800781 7.375 -11.71875 L 7.375 -0.34375 C 7.375 -0.113281 7.257812 0 7.03125 0 L 4.84375 0 C 4.601562 0 4.484375 -0.113281 4.484375 -0.34375 L 4.484375 -11.71875 C 4.484375 -11.800781 4.441406 -11.84375 4.359375 -11.84375 L 0.921875 -11.84375 C 0.691406 -11.84375 0.578125 -11.960938 0.578125 -12.203125 L 0.578125 -14 C 0.578125 -14.226562 0.691406 -14.34375 0.921875 -14.34375 Z M 11.046875 -14.34375 "/></g></g></g><g fill="#ec268f" fill-opacity="1"><g transform="translate(184.254951, 342.789082)"><g><path d="M 11.21875 -12.21875 C 11.21875 -11.988281 11.097656 -11.875 10.859375 -11.875 L 4.265625 -11.875 C 4.179688 -11.875 4.140625 -11.832031 4.140625 -11.75 L 4.140625 -8.609375 C 4.140625 -8.523438 4.179688 -8.484375 4.265625 -8.484375 L 8.546875 -8.484375 C 8.773438 -8.484375 8.890625 -8.367188 8.890625 -8.140625 L 8.890625 -6.359375 C 8.890625 -6.117188 8.773438 -6 8.546875 -6 L 4.265625 -6 C 4.179688 -6 4.140625 -5.960938 4.140625 -5.890625 L 4.140625 -2.609375 C 4.140625 -2.523438 4.179688 -2.484375 4.265625 -2.484375 L 10.859375 -2.484375 C 11.097656 -2.484375 11.21875 -2.363281 11.21875 -2.125 L 11.21875 -0.34375 C 11.21875 -0.113281 11.097656 0 10.859375 0 L 1.59375 0 C 1.363281 0 1.25 -0.113281 1.25 -0.34375 L 1.25 -14 C 1.25 -14.226562 1.363281 -14.34375 1.59375 -14.34375 L 10.859375 -14.34375 C 11.097656 -14.34375 11.21875 -14.226562 11.21875 -14 Z M 11.21875 -12.21875 "/></g></g></g><g fill="#ec268f" fill-opacity="1"><g transform="translate(203.712468, 342.789082)"><g><path d="M 1.59375 0 C 1.363281 0 1.25 -0.113281 1.25 -0.34375 L 1.25 -14 C 1.25 -14.226562 1.363281 -14.34375 1.59375 -14.34375 L 3.703125 -14.34375 C 3.890625 -14.34375 4.03125 -14.269531 4.125 -14.125 L 9.25 -5.59375 C 9.269531 -5.539062 9.296875 -5.519531 9.328125 -5.53125 C 9.367188 -5.550781 9.390625 -5.585938 9.390625 -5.640625 L 9.390625 -14 C 9.390625 -14.226562 9.503906 -14.34375 9.734375 -14.34375 L 11.890625 -14.34375 C 12.117188 -14.34375 12.234375 -14.226562 12.234375 -14 L 12.234375 -0.34375 C 12.234375 -0.113281 12.117188 0 11.890625 0 L 9.796875 0 C 9.628906 0 9.492188 -0.0820312 9.390625 -0.25 L 4.25 -8.859375 C 4.21875 -8.910156 4.179688 -8.925781 4.140625 -8.90625 C 4.109375 -8.894531 4.09375 -8.863281 4.09375 -8.8125 L 4.125 -0.34375 C 4.125 -0.113281 4.003906 0 3.765625 0 Z M 1.59375 0 "/></g></g></g><g fill="#ec268f" fill-opacity="1"><g transform="translate(224.686967, 342.789082)"><g><path d="M 11.21875 -12.21875 C 11.21875 -11.988281 11.097656 -11.875 10.859375 -11.875 L 4.265625 -11.875 C 4.179688 -11.875 4.140625 -11.832031 4.140625 -11.75 L 4.140625 -8.609375 C 4.140625 -8.523438 4.179688 -8.484375 4.265625 -8.484375 L 8.546875 -8.484375 C 8.773438 -8.484375 8.890625 -8.367188 8.890625 -8.140625 L 8.890625 -6.359375 C 8.890625 -6.117188 8.773438 -6 8.546875 -6 L 4.265625 -6 C 4.179688 -6 4.140625 -5.960938 4.140625 -5.890625 L 4.140625 -2.609375 C 4.140625 -2.523438 4.179688 -2.484375 4.265625 -2.484375 L 10.859375 -2.484375 C 11.097656 -2.484375 11.21875 -2.363281 11.21875 -2.125 L 11.21875 -0.34375 C 11.21875 -0.113281 11.097656 0 10.859375 0 L 1.59375 0 C 1.363281 0 1.25 -0.113281 1.25 -0.34375 L 1.25 -14 C 1.25 -14.226562 1.363281 -14.34375 1.59375 -14.34375 L 10.859375 -14.34375 C 11.097656 -14.34375 11.21875 -14.226562 11.21875 -14 Z M 11.21875 -12.21875 "/></g></g></g><g fill="#ec268f" fill-opacity="1"><g transform="translate(244.144483, 342.789082)"><g><path d="M 9.203125 0 C 9.023438 0 8.890625 -0.0859375 8.796875 -0.265625 L 6.265625 -5.84375 C 6.242188 -5.90625 6.195312 -5.9375 6.125 -5.9375 L 4.265625 -5.9375 C 4.179688 -5.9375 4.140625 -5.898438 4.140625 -5.828125 L 4.140625 -0.34375 C 4.140625 -0.113281 4.023438 0 3.796875 0 L 1.59375 0 C 1.363281 0 1.25 -0.113281 1.25 -0.34375 L 1.25 -14.015625 C 1.25 -14.253906 1.363281 -14.375 1.59375 -14.375 L 7.359375 -14.375 C 8.234375 -14.375 9 -14.191406 9.65625 -13.828125 C 10.320312 -13.460938 10.835938 -12.953125 11.203125 -12.296875 C 11.566406 -11.640625 11.75 -10.890625 11.75 -10.046875 C 11.75 -9.117188 11.515625 -8.316406 11.046875 -7.640625 C 10.585938 -6.972656 9.945312 -6.503906 9.125 -6.234375 C 9.082031 -6.222656 9.050781 -6.195312 9.03125 -6.15625 C 9.019531 -6.125 9.03125 -6.09375 9.0625 -6.0625 L 11.765625 -0.40625 C 11.804688 -0.351562 11.828125 -0.289062 11.828125 -0.21875 C 11.828125 -0.15625 11.800781 -0.101562 11.75 -0.0625 C 11.695312 -0.0195312 11.617188 0 11.515625 0 Z M 4.265625 -11.875 C 4.179688 -11.875 4.140625 -11.832031 4.140625 -11.75 L 4.140625 -8.296875 C 4.140625 -8.210938 4.179688 -8.171875 4.265625 -8.171875 L 6.921875 -8.171875 C 7.503906 -8.171875 7.972656 -8.335938 8.328125 -8.671875 C 8.691406 -9.015625 8.875 -9.457031 8.875 -10 C 8.875 -10.550781 8.691406 -11 8.328125 -11.34375 C 7.972656 -11.695312 7.503906 -11.875 6.921875 -11.875 Z M 4.265625 -11.875 "/></g></g></g></svg>